<svg class="icon" viewBox="0 0 1024 1024" xmlns="http://www.w3.org/2000/svg" width="200" height="200"><path d="M1024 42.667V185.6c0 23.467-19.2 42.667-42.667 42.667s-42.666-19.2-42.666-42.667v-40.533L642.133 441.6c-8.533 8.533-19.2 12.8-29.866 12.8-10.667 0-21.334-4.267-29.867-12.8l-226.133-224L72.533 499.2C64 507.733 53.333 512 42.667 512s-21.334-4.267-29.867-12.8c-17.067-17.067-17.067-42.667 0-59.733l313.6-313.6c17.067-17.067 42.667-17.067 59.733 0L612.267 352 878.933 85.333h-38.4c-23.466 0-42.666-19.2-42.666-42.666S817.067 0 840.533 0H992c2.133 0 6.4 2.133 8.533 4.267 2.134 0 2.134 2.133 4.267 2.133s2.133 2.133 4.267 2.133l6.4 6.4s2.133 2.134 2.133 4.267 2.133 2.133 2.133 4.267c2.134 2.133 2.134 6.4 4.267 8.533v10.667zM128 1024c-23.467 0-42.667-19.2-42.667-42.667v-313.6c0-23.466 19.2-42.666 42.667-42.666s42.667 19.2 42.667 42.666v313.6c0 23.467-19.2 42.667-42.667 42.667z"/><path d="M384 1024c-23.467 0-42.667-19.2-42.667-42.667v-512c0-23.466 19.2-42.666 42.667-42.666s42.667 19.2 42.667 42.666v512c0 23.467-19.2 42.667-42.667 42.667zm256 0c-23.467 0-42.667-19.2-42.667-42.667V612.267c0-23.467 19.2-42.667 42.667-42.667s42.667 19.2 42.667 42.667v369.066c0 23.467-19.2 42.667-42.667 42.667zm256 0c-23.467 0-42.667-19.2-42.667-42.667V384c0-23.467 19.2-42.667 42.667-42.667s42.667 19.2 42.667 42.667v597.333c0 23.467-19.2 42.667-42.667 42.667z"/></svg>