<?xml version="1.0" encoding="utf-8"?>
<!-- Generator: Adobe Illustrator 25.3.1, SVG Export Plug-In . SVG Version: 6.00 Build 0)  -->
<svg version="1.1" id="图层_1" xmlns="http://www.w3.org/2000/svg" xmlns:xlink="http://www.w3.org/1999/xlink" x="0px" y="0px"
	 viewBox="0 0 48 50" style="enable-background:new 0 0 48 50;" xml:space="preserve">
<style type="text/css">
	.st0{fill:none;}
	.st1{fill:url(#形状_2_);}
	.st2{fill:#FFFFFF;}
	.st3{opacity:0.6472;fill:url(#路径_3_);stroke:#F4F5FD;stroke-width:0.96;enable-background:new    ;}
	.st4{fill:#F7F8F8;}
</style>
<g id="运维管理">
	<g id="运维管理_x2F_运维统计" transform="translate(-1328.000000, -187.000000)">
		<g id="编组-8" transform="translate(260.000000, 128.000000)">
			<g id="编组-2备份-5" transform="translate(930.000000, 24.000000)">
				<g id="编组-23" transform="translate(138.000000, 35.000000)">
					<rect id="矩形" y="1" class="st0" width="48" height="48"/>
					<g id="ic_mianxing_jiakaotimu_1" transform="translate(4.000000, 0.000000)">
						
							<linearGradient id="形状_2_" gradientUnits="userSpaceOnUse" x1="-911" y1="553.439" x2="-911" y2="552.439" gradientTransform="matrix(34 0 0 -41 30991 22692)">
							<stop  offset="0" style="stop-color:#6D87F1"/>
							<stop  offset="1" style="stop-color:#3B4FDF"/>
						</linearGradient>
						<path id="形状" class="st1" d="M0,7v29c0,3.3,2.7,6,6,6h22c3.3,0,6-2.7,6-6V7c0-3.3-2.7-6-6-6H6C2.7,1,0,3.7,0,7z"/>
						<path id="路径" class="st2" d="M10,34.5c0,0.8-0.9,1.5-2,1.5c-1.1,0-2-0.7-2-1.5V8.5C6,7.7,6.9,7,8,7c1.1,0,2,0.7,2,1.5
							V34.5z"/>
						<path id="路径_1_" class="st2" d="M28.2,15.3c-1.7-1.5-2.6-2.2-2.7-2.2c-0.1,0-1,0.7-2.8,2.2c-0.2,0.2-0.5,0.1-0.6,0
							C22,15.2,22,15.1,22,15V8.4C22,7.6,22.6,7,23.4,7h4.2C28.4,7,29,7.6,29,8.4V15c0,0.3-0.2,0.5-0.5,0.5
							C28.4,15.5,28.3,15.4,28.2,15.3z"/>
					</g>
					<g id="daipaidan备份" transform="translate(24.023256, 26.880000)">
						
							<linearGradient id="路径_3_" gradientUnits="userSpaceOnUse" x1="-911.8124" y1="513.5743" x2="-911.8124" y2="512.5743" gradientTransform="matrix(20.0167 0 0 -20.16 18262.0039 10355.1387)">
							<stop  offset="0" style="stop-color:#89A0FF"/>
							<stop  offset="1" style="stop-color:#5B6FFF"/>
						</linearGradient>
						<path id="路径_2_" class="st3" d="M10.5,1.5c2.8,0,5.3,1.1,7.1,3c1.8,1.8,2.9,4.3,2.9,7.1c0,3.6-1.9,6.9-5,8.7
							c-1.5,0.9-3.3,1.3-5,1.3s-3.5-0.4-5-1.3c-3.1-1.8-5-5.1-5-8.7c0-2.8,1.1-5.3,2.9-7.1C5.2,2.6,7.7,1.5,10.5,1.5z"/>
						<g id="形状_1_">
							<g>
								<path id="path-4" d="M9.7,4.8h1.5c0.7,0,1.2,0.5,1.2,1.1l-0.3,4.8c0,0.6-0.5,1-1.2,1H10c-0.6,0-1.1-0.4-1.2-1L8.6,6
									C8.5,5.4,9.1,4.8,9.7,4.8z M10.5,16.4c-1.1,0-1.9-0.8-1.9-1.8c0-1,0.9-1.8,1.9-1.8c1.1,0,1.9,0.8,1.9,1.8
									C12.4,15.6,11.5,16.4,10.5,16.4z"/>
							</g>
							<g>
								<path id="path-4_1_" class="st4" d="M9.7,4.8h1.5c0.7,0,1.2,0.5,1.2,1.1l-0.3,4.8c0,0.6-0.5,1-1.2,1H10
									c-0.6,0-1.1-0.4-1.2-1L8.6,6C8.5,5.4,9.1,4.8,9.7,4.8z M10.5,16.4c-1.1,0-1.9-0.8-1.9-1.8c0-1,0.9-1.8,1.9-1.8
									c1.1,0,1.9,0.8,1.9,1.8C12.4,15.6,11.5,16.4,10.5,16.4z"/>
							</g>
						</g>
					</g>
				</g>
			</g>
		</g>
	</g>
</g>
</svg>
