<?xml version="1.0" encoding="utf-8"?>
<!-- Generator: Adobe Illustrator 25.3.1, SVG Export Plug-In . SVG Version: 6.00 Build 0)  -->
<svg version="1.1" id="图层_1" xmlns="http://www.w3.org/2000/svg" xmlns:xlink="http://www.w3.org/1999/xlink" x="0px" y="0px"
	 viewBox="0 0 49 48" style="enable-background:new 0 0 49 48;" xml:space="preserve">
<style type="text/css">
	.st0{fill:none;}
	.st1{fill:url(#路径_3_);}
	.st2{fill:url(#形状_1_);}
	.st3{opacity:0.6472;enable-background:new    ;}
	.st4{fill:url(#SVGID_1_);}
	.st5{fill:none;stroke:#F4F5FD;stroke-width:0.92;}
	.st6{fill:url(#SVGID_2_);}
</style>
<g id="运维管理">
	<g id="运维管理_x2F_运维统计" transform="translate(-422.000000, -187.000000)">
		<g id="编组-8" transform="translate(260.000000, 128.000000)">
			<g id="编组-2" transform="translate(24.000000, 24.000000)">
				<g id="编组-21" transform="translate(138.000000, 35.000000)">
					<rect id="矩形" class="st0" width="48" height="48"/>
					<g id="zhiborenshu" transform="translate(1.000000, 4.000000)">
						
							<linearGradient id="路径_3_" gradientUnits="userSpaceOnUse" x1="-1772.9423" y1="55.4975" x2="-1772.9423" y2="56.4975" gradientTransform="matrix(18.9741 0 0 18.5594 33658.5312 -1030.0249)">
							<stop  offset="0" style="stop-color:#6D87F1"/>
							<stop  offset="1" style="stop-color:#3B4FDF"/>
						</linearGradient>
						<path id="路径" class="st1" d="M9.1,9.3c0,5.1,4.2,9.3,9.5,9.3S28,14.4,28,9.3S23.8,0,18.5,0S9.1,4.1,9.1,9.3z"/>
						
							<linearGradient id="形状_1_" gradientUnits="userSpaceOnUse" x1="-1820.6991" y1="51.7237" x2="-1820.6991" y2="52.723" gradientTransform="matrix(36.8095 0 0 19.9136 67037.4297 -1010.9051)">
							<stop  offset="0" style="stop-color:#6D87F1"/>
							<stop  offset="1" style="stop-color:#3B4FDF"/>
						</linearGradient>
						<path id="形状" class="st2" d="M23.1,19.1h-7.5C7,19.1,0,25.9,0,34.4C0,36.9,2.1,39,4.7,39h28.4c2,0,3.7-1.6,3.7-3.6v-2.9
							C36.8,25.1,30.7,19.1,23.1,19.1z"/>
						<g id="路径_1_" class="st3">
							
								<linearGradient id="SVGID_1_" gradientUnits="userSpaceOnUse" x1="-1722.6676" y1="72.8493" x2="-1722.6676" y2="73.8493" gradientTransform="matrix(12.5639 0 0 14.1388 21676.3477 -1025.6664)">
								<stop  offset="0" style="stop-color:#89A0FF"/>
								<stop  offset="1" style="stop-color:#5B6FFF"/>
							</linearGradient>
							<path class="st4" d="M29.2,9.2c0,2.4-0.9,4.6-2.4,6.4c-0.2,0.2-0.2,0.5,0,0.7c2.8,2.8,7.3,2.9,10.2,0.2
								c1.4-1.3,2.2-3.2,2.2-5.1c0-3.8-3.2-7-7.1-7C31,4.3,30,4.6,29,5c-0.3,0.1-0.5,0.5-0.4,0.9C29,6.9,29.2,8.1,29.2,9.2z"/>
							<path class="st5" d="M29.2,9.2c0,2.4-0.9,4.6-2.4,6.4c-0.2,0.2-0.2,0.5,0,0.7c2.8,2.8,7.3,2.9,10.2,0.2
								c1.4-1.3,2.2-3.2,2.2-5.1c0-3.8-3.2-7-7.1-7C31,4.3,30,4.6,29,5c-0.3,0.1-0.5,0.5-0.4,0.9C29,6.9,29.2,8.1,29.2,9.2z"/>
						</g>
						<g id="路径_2_" class="st3">
							
								<linearGradient id="SVGID_2_" gradientUnits="userSpaceOnUse" x1="-1748.3446" y1="55.9399" x2="-1748.3446" y2="56.9393" gradientTransform="matrix(15.1833 0 0 18.4126 26583.9922 -1010.3727)">
								<stop  offset="0" style="stop-color:#89A0FF"/>
								<stop  offset="1" style="stop-color:#5B6FFF"/>
							</linearGradient>
							<path class="st6" d="M33.3,19.6h-2.1c-0.2,0-0.4,0.2-0.4,0.4c0,0.1,0.1,0.3,0.2,0.4c4.3,2.5,6.9,7,6.9,11.9v2.9
								c0,0.8-0.2,1.5-0.7,2.1c-0.1,0.2-0.1,0.4,0.1,0.6c0.1,0,0.1,0.1,0.2,0.1h5c1.9,0,3.4-1.5,3.4-3.3v-2.6
								C46,25.2,40.3,19.6,33.3,19.6z"/>
							<path class="st5" d="M33.3,19.6h-2.1c-0.2,0-0.4,0.2-0.4,0.4c0,0.1,0.1,0.3,0.2,0.4c4.3,2.5,6.9,7,6.9,11.9v2.9
								c0,0.8-0.2,1.5-0.7,2.1c-0.1,0.2-0.1,0.4,0.1,0.6c0.1,0,0.1,0.1,0.2,0.1h5c1.9,0,3.4-1.5,3.4-3.3v-2.6
								C46,25.2,40.3,19.6,33.3,19.6z"/>
						</g>
					</g>
				</g>
			</g>
		</g>
	</g>
</g>
</svg>
