<?xml version="1.0" encoding="utf-8"?>
<!-- Generator: Adobe Illustrator 25.3.1, SVG Export Plug-In . SVG Version: 6.00 Build 0)  -->
<svg version="1.1" id="图层_1" xmlns="http://www.w3.org/2000/svg" xmlns:xlink="http://www.w3.org/1999/xlink" x="0px" y="0px"
	 viewBox="0 0 50 50" style="enable-background:new 0 0 50 50;" xml:space="preserve">
<style type="text/css">
	.st0{fill:none;}
	.st1{fill:url(#路径_2_);}
	.st2{fill:#FFFFFF;}
	.st3{opacity:0.6472;fill:url(#路径_3_);stroke:#F4F5FD;enable-background:new    ;}
	.st4{fill:#F7F8F8;}
</style>
<g id="运维管理">
	<g id="运维管理_x2F_运维统计" transform="translate(-872.000000, -186.000000)">
		<g id="编组-8" transform="translate(260.000000, 128.000000)">
			<g id="编组-2备份-3" transform="translate(477.000000, 24.000000)">
				<g id="编组-22" transform="translate(135.000000, 34.000000)">
					<rect id="矩形" x="1" y="1" class="st0" width="48" height="48"/>
					<g id="shimingrenzheng" transform="translate(0.000000, 5.000000)">
						
							<linearGradient id="路径_2_" gradientUnits="userSpaceOnUse" x1="-913.1739" y1="547.0811" x2="-913.1739" y2="546.0811" gradientTransform="matrix(46 0 0 -37 42030 20243)">
							<stop  offset="0" style="stop-color:#6D87F1"/>
							<stop  offset="1" style="stop-color:#3B4FDF"/>
						</linearGradient>
						<path id="路径" class="st1" d="M47,32.5v-26c0-3-2.5-5.5-5.5-5.5h-35C3.5,1,1,3.5,1,6.5v26c0,3,2.5,5.5,5.5,5.5h35
							C44.5,38,47,35.5,47,32.5z"/>
						<path id="形状" class="st2" d="M20.9,20.3c1-1,1.6-2.4,1.6-4c0-3.2-2.7-5.9-6.1-5.9s-6.1,2.6-6.1,5.9c0,1.5,0.6,2.9,1.6,4
							c-2.2,1.4-3.7,3.8-3.7,6.6c0,0.9,0.7,1.6,1.6,1.6c0.9,0,1.6-0.7,1.6-1.6c0-2.6,2.2-4.7,4.8-4.7c2.7,0,4.8,2.1,4.8,4.7
							c0,0.9,0.7,1.6,1.6,1.6c0.9,0,1.6-0.7,1.6-1.6C24.6,24.2,23.1,21.7,20.9,20.3z M13.7,16.4c0-1.5,1.2-2.7,2.8-2.7
							s2.8,1.2,2.8,2.7c0,1.5-1.2,2.7-2.8,2.7S13.7,17.8,13.7,16.4z M39.7,14.8c0-0.9-0.7-1.6-1.6-1.6h-8.3c-0.9,0-1.6,0.7-1.6,1.6
							c0,0.9,0.7,1.6,1.6,1.6H38C38.9,16.4,39.7,15.7,39.7,14.8L39.7,14.8z"/>
					</g>
					
						<linearGradient id="路径_3_" gradientUnits="userSpaceOnUse" x1="-888.9762" y1="541.4762" x2="-888.9762" y2="540.4762" gradientTransform="matrix(21 0 0 -21 18706.5 11398.5)">
						<stop  offset="0" style="stop-color:#89A0FF"/>
						<stop  offset="1" style="stop-color:#5B6FFF"/>
					</linearGradient>
					<path id="路径_1_" class="st3" d="M38,27.5c2.9,0,5.5,1.2,7.4,3.1c1.9,1.9,3.1,4.5,3.1,7.4c0,1.9-0.5,3.7-1.4,5.2
						c-0.9,1.6-2.2,2.9-3.8,3.8c-1.6,0.9-3.4,1.4-5.2,1.4s-3.6-0.5-5.2-1.4c-1.6-0.9-2.9-2.3-3.8-3.8c-0.9-1.6-1.4-3.4-1.4-5.2
						c0-2.9,1.2-5.5,3.1-7.4C32.5,28.7,35.1,27.5,38,27.5z"/>
					<g id="形状_1_">
						<g>
							<path id="path-4" d="M37.2,32h1.6c0.7,0,1.3,0.5,1.2,1.2l-0.3,5c0,0.6-0.6,1.1-1.2,1.1h-0.9c-0.6,0-1.2-0.5-1.2-1.1l-0.3-5
								C36,32.5,36.5,32,37.2,32z M38,44c-1.1,0-2-0.8-2-1.8c0-1,0.9-1.8,2-1.8c1.1,0,2,0.8,2,1.8C40,43.2,39.1,44,38,44z"/>
						</g>
						<g>
							<path id="path-4_1_" class="st4" d="M37.2,32h1.6c0.7,0,1.3,0.5,1.2,1.2l-0.3,5c0,0.6-0.6,1.1-1.2,1.1h-0.9
								c-0.6,0-1.2-0.5-1.2-1.1l-0.3-5C36,32.5,36.5,32,37.2,32z M38,44c-1.1,0-2-0.8-2-1.8c0-1,0.9-1.8,2-1.8c1.1,0,2,0.8,2,1.8
								C40,43.2,39.1,44,38,44z"/>
						</g>
					</g>
				</g>
			</g>
		</g>
	</g>
</g>
</svg>
