<?xml version="1.0" encoding="utf-8"?>
<!-- Generator: Adobe Illustrator 25.3.1, SVG Export Plug-In . SVG Version: 6.00 Build 0)  -->
<svg version="1.1" id="图层_1" xmlns="http://www.w3.org/2000/svg" xmlns:xlink="http://www.w3.org/1999/xlink" x="0px" y="0px"
	 viewBox="0 0 50 50" style="enable-background:new 0 0 50 50;" xml:space="preserve">
<style type="text/css">
	.st0{fill:none;}
	.st1{fill:url(#路径_2_);}
	.st2{fill:url(#形状_1_);}
	.st3{opacity:0.6472;fill:url(#路径_3_);stroke:#F4F5FD;enable-background:new    ;}
	.st4{fill:#FFFFFF;}
</style>
<g id="运维管理">
	<g id="运维管理_x2F_运维统计" transform="translate(-649.000000, -187.000000)">
		<g id="编组-8" transform="translate(260.000000, 128.000000)">
			<g id="编组-2备份-2" transform="translate(251.000000, 24.000000)">
				<g id="编组-21" transform="translate(138.000000, 35.000000)">
					<rect id="矩形" x="1" y="1" class="st0" width="48" height="48"/>
					<g id="zhiborenshu" transform="translate(1.000000, 3.500000)">
						<g id="编组-24">
							
								<linearGradient id="路径_2_" gradientUnits="userSpaceOnUse" x1="-884.1141" y1="534.7512" x2="-884.1141" y2="533.7512" gradientTransform="matrix(18.5568 0 0 -18.5594 16425.4355 9925.6377)">
								<stop  offset="0" style="stop-color:#6D87F1"/>
								<stop  offset="1" style="stop-color:#3B4FDF"/>
							</linearGradient>
							<path id="路径" class="st1" d="M9.9,10.3c0,5.1,4.2,9.3,9.3,9.3s9.3-4.2,9.3-9.3S24.3,1,19.1,1S9.9,5.1,9.9,10.3z"/>
							
								<linearGradient id="形状_1_" gradientUnits="userSpaceOnUse" x1="-908.5278" y1="536.6383" x2="-908.5278" y2="535.6383" gradientTransform="matrix(36 0 0 -19.9136 32726 10706.4951)">
								<stop  offset="0" style="stop-color:#6D87F1"/>
								<stop  offset="1" style="stop-color:#3B4FDF"/>
							</linearGradient>
							<path id="形状" class="st2" d="M23.6,20.1h-7.3C7.8,20.1,1,26.9,1,35.4C1,37.9,3.1,40,5.6,40h27.8c2,0,3.6-1.6,3.6-3.6
								v-2.9C37,26.1,31,20.1,23.6,20.1z"/>
						</g>
						
							<linearGradient id="路径_3_" gradientUnits="userSpaceOnUse" x1="-889.9762" y1="537.9762" x2="-889.9762" y2="536.9762" gradientTransform="matrix(21 0 0 -21 18726.5 11321.5)">
							<stop  offset="0" style="stop-color:#89A0FF"/>
							<stop  offset="1" style="stop-color:#5B6FFF"/>
						</linearGradient>
						<path id="路径_1_" class="st3" d="M37,24c2.9,0,5.5,1.2,7.4,3.1c1.9,1.9,3.1,4.5,3.1,7.4c0,1.9-0.5,3.7-1.4,5.2
							c-0.9,1.6-2.2,2.9-3.8,3.8C40.6,44.5,38.8,45,37,45s-3.6-0.5-5.2-1.4c-1.6-0.9-2.9-2.3-3.8-3.8c-0.9-1.6-1.4-3.4-1.4-5.2
							c0-2.9,1.2-5.5,3.1-7.4C31.5,25.2,34.1,24,37,24z"/>
						<path id="路径-2_1_" class="st4" d="M40.2,30.9c0.5-0.7,1.4-0.9,2.1-0.4c0.7,0.5,0.9,1.4,0.4,2.1l-5.1,7.6
							c-0.5,0.8-1.7,0.9-2.3,0.2l-3.7-3.8c-0.6-0.6-0.6-1.5,0-2.1c0.6-0.6,1.5-0.6,2.1,0l2.4,2.5L40.2,30.9z"/>
					</g>
				</g>
			</g>
		</g>
	</g>
</g>
</svg>
