<svg class="icon" viewBox="0 0 1024 1024" xmlns="http://www.w3.org/2000/svg" width="200" height="200"><path d="M904.533 0H119.467C55.467 0 2.133 51.2 0 115.2v526.933c0 64 51.2 117.334 115.2 119.467h358.4v185.6H315.733c-29.866 0-53.333 23.467-53.333 51.2v25.6h501.333v-21.333c0-27.734-21.333-51.2-46.933-53.334H550.4v-185.6h354.133c64 0 117.334-51.2 119.467-115.2V119.467c0-64-51.2-117.334-115.2-119.467h-4.267zm-29.866 72.533c40.533 0 74.666 32 76.8 72.534V614.4c0 40.533-32 74.667-72.534 76.8h-729.6c-40.533 0-74.666-32-76.8-72.533V149.333c0-40.533 32-74.666 72.534-76.8h729.6zm-590.934 256h-4.266c-23.467 0-34.134 10.667-34.134 34.134V531.2c0 25.6 10.667 36.267 34.134 38.4H288c23.467 0 34.133-10.667 34.133-34.133V366.933c0-25.6-10.666-36.266-34.133-38.4h-4.267zm456.534 66.134H736c-23.467 0-34.133 10.666-34.133 34.133v102.4c0 25.6 10.666 36.267 34.133 38.4h8.533c23.467 0 34.134-10.667 34.134-34.133v-102.4c0-25.6-10.667-36.267-34.134-38.4h-4.266zM512 194.133h-4.267c-23.466 0-34.133 10.667-34.133 34.134v298.666c0 25.6 10.667 36.267 34.133 38.4h8.534c23.466 0 34.133-10.666 34.133-34.133V232.533c0-25.6-10.667-36.266-34.133-38.4H512z"/></svg>