<svg class="icon" viewBox="0 0 1025 1024" xmlns="http://www.w3.org/2000/svg" width="200" height="200"><path d="M453.248 23.466c29.866-29.866 76.797-31.999 110.93-6.4l8.532 6.4 443.717 428.783c10.666 10.667 12.8 27.733 4.266 40.532l-4.266 6.4c-10.666 10.666-27.732 12.8-40.532 4.266l-4.267-4.266-6.4-6.4v322.121c0 106.663-83.196 194.126-189.859 206.926l-14.932 2.133H278.322C163.126 1026.094 67.13 940.764 60.73 829.835V492.781l-4.267 4.267c-10.666 8.533-23.465 10.666-36.265 6.4l-6.4-2.134-4.266-4.266c-10.666-10.667-12.8-27.733-4.267-40.532l4.267-6.4 443.716-426.65zm17.066 78.93l-6.4 6.4-334.92 317.854v390.386c0 74.663 61.864 136.528 136.528 142.927h81.064V665.575c0-83.197 68.264-153.595 153.594-159.994h36.265c85.33 0 157.86 66.13 164.26 147.194v302.922h46.932c78.93 0 142.928-59.731 149.328-132.262V430.917h-2.134l-334.92-322.121c-21.333-21.333-55.465-25.6-81.064-10.666l-8.533 4.266zm66.131 471.449h-25.599c-51.198 0-89.597 36.265-95.996 83.197V945.03l2.133 12.8h215.458V665.574c0-51.198-40.531-91.73-95.996-91.73z"/></svg>