<svg class="icon" viewBox="0 0 1024 1024" xmlns="http://www.w3.org/2000/svg" width="200" height="200"><path d="M984.16 872.612l-102.347-95.95c21.322-61.834 6.396-132.198-40.513-181.239-34.115-34.115-78.892-51.173-121.536-51.173-27.72 0-55.438 6.397-78.892 19.19-14.926 6.397-17.058 27.719-4.265 40.512l83.157 83.157-29.851 29.85-83.157-83.156c-4.264-4.264-10.661-6.396-17.058-6.396-10.66 0-17.058 4.264-21.322 14.925-31.983 63.967-21.322 144.991 31.983 200.43 34.116 34.115 76.76 49.04 121.537 49.04 19.19 0 40.512-2.132 57.57-10.66l102.347 95.95 17.058 17.057c10.66 10.661 25.586 10.661 34.115 0l68.231-68.231c10.661-10.661 10.661-25.587 0-34.116l-17.058-19.19zm-70.364 68.231l-102.347-95.95c-10.66-10.66-21.322-14.925-34.115-14.925-4.265 0-10.661 0-17.058 2.132-12.793 4.264-27.719 6.397-42.644 6.397-31.984 0-63.967-12.794-87.422-36.248-29.85-29.851-42.644-68.231-34.115-108.744l57.57 57.57c10.661 10.662 21.322 14.926 34.115 14.926 12.794 0 25.587-4.264 34.116-14.926l29.851-29.85c19.19-19.19 19.19-51.174 0-68.232l-57.57-57.57c6.397-2.132 14.926-2.132 21.322-2.132 31.984 0 63.967 12.793 87.421 36.248 34.116 31.983 46.91 81.024 29.852 127.933-6.397 17.058-2.133 36.248 12.793 51.173l102.347 95.95-34.116 36.248z"/><path d="M568.376 1024H120.609C54.51 1024 1.205 970.694 1.205 906.728V117.805C1.205 53.84 54.51.533 120.609.533h680.18c66.098 0 119.404 53.306 119.404 117.272v371.007c0 21.322-17.058 38.38-38.38 38.38s-38.38-17.058-38.38-38.38V117.805c0-23.454-19.19-42.644-42.645-42.644H120.61c-23.454 0-42.644 19.19-42.644 42.644v788.923c0 23.454 19.19 42.644 42.644 42.644h447.767c21.322 0 38.38 17.058 38.38 38.38S589.698 1024 568.376 1024z"/><path d="M687.78 305.44H180.311c-21.322 0-38.38-17.057-38.38-38.38s17.058-38.38 38.38-38.38h507.47c21.322 0 38.38 17.059 38.38 38.38s-17.058 38.38-38.38 38.38zm-81.024 215.355H180.311c-21.322 0-38.38-17.057-38.38-38.38s17.058-38.38 38.38-38.38h426.445c21.322 0 38.38 17.058 38.38 38.38s-17.058 38.38-38.38 38.38zM442.575 734.018H180.31c-21.322 0-38.38-17.058-38.38-38.38s17.058-38.38 38.38-38.38h262.264c21.322 0 38.38 17.057 38.38 38.38s-17.058 38.38-38.38 38.38z"/></svg>