<svg class="icon" viewBox="0 0 1024 1024" xmlns="http://www.w3.org/2000/svg" width="200" height="200"><path d="M644.518 493.93c48.188-30.118 108.423-12.048 138.54 36.14l192.754 307.2c12.047 18.071 12.047 36.142 12.047 54.212 0 54.212-48.188 102.4-102.4 102.4H505.976c-18.07 0-36.14-6.023-54.211-12.047-48.189-30.117-66.26-90.353-36.141-138.54l192.752-307.2c6.024-24.095 18.071-36.142 36.142-42.166zM801.129 36.14c60.236 0 108.424 48.188 114.447 102.4v313.224c0 18.07-18.07 36.14-36.14 36.14s-30.118-12.046-36.142-30.117v-307.2c0-24.094-18.07-42.164-36.141-42.164H150.588c-18.07 0-42.164 12.047-42.164 36.14v728.848c0 24.094 18.07 42.164 36.14 42.164h102.4c18.071 0 36.142 18.071 36.142 36.142s-12.047 30.117-30.118 36.14h-102.4c-60.235 0-108.423-48.187-114.447-102.4v-734.87c0-60.235 48.188-108.423 102.4-114.447H801.13zm-78.305 524.047c-12.048-12.047-30.118-18.07-42.165-12.047-6.024 0-6.024 6.024-12.047 12.047l-192.753 307.2c-12.047 12.047-6.024 36.141 12.047 42.165 6.023 6.023 12.047 6.023 18.07 6.023H885.46c18.07 0 30.117-12.047 30.117-30.117 0-6.024 0-12.047-6.023-18.07l-186.73-307.2zm-12.048 295.153c12.048 0 18.071 12.047 18.071 18.07 0 12.048-12.047 18.071-18.07 18.071h-30.118c-12.047 0-18.07-12.047-18.07-18.07 0-12.047 12.046-18.07 18.07-18.07h30.117zm-18.07-168.659c18.07 0 36.141 18.07 36.141 36.142v54.211c0 18.07-18.07 36.141-36.141 36.141s-36.141-18.07-36.141-36.14v-54.212c0-24.095 18.07-36.142 36.14-36.142zM463.812 475.86c24.094 0 42.164 18.07 42.164 42.165s-18.07 42.164-42.164 42.164H289.129c-18.07 0-36.14-18.07-36.14-42.164s18.07-42.165 42.164-42.165h168.659zm222.87-252.988c24.094 0 42.165 18.07 42.165 42.164s-18.07 42.165-42.165 42.165H289.13c-24.094 0-42.164-18.07-42.164-42.165s18.07-42.164 42.164-42.164h397.553z"/></svg>