<svg class="icon" viewBox="0 0 1024 1024" xmlns="http://www.w3.org/2000/svg" width="128" height="128"><path d="M593.265 860.16l2.375.123c12.493 1.372 21.3 13.312 18.084 25.497l-1.25 4.383C599.328 932.086 559.31 962.56 512 962.56l-4.874-.102c-46.777-2.09-85.586-33.977-96.87-76.678l-.451-2.273c-1.761-12.124 8.007-23.347 20.93-23.347h162.53zM512 61.44a30.72 30.72 0 0 1 30.72 30.72v32.236c157.45 15.83 276.48 154.296 276.48 314.368V655.36l.123 3.072a40.96 40.96 0 0 0 40.837 37.888h7.311l3.482.102c25.395 1.598 47.841 20.337 50.38 45.814l.226 3.277a51.2 51.2 0 0 1-51.139 53.207H156.53l-3.482-.102c-25.395-1.598-47.841-20.337-50.38-45.814l-.226-3.277A51.2 51.2 0 0 1 153.6 696.32h10.24l3.072-.102A40.96 40.96 0 0 0 204.8 655.36V430.08c0-159.293 121.242-290.263 276.48-305.684V92.16A30.72 30.72 0 0 1 512 61.44z"/></svg>