<svg class="icon" viewBox="0 0 1024 1024" xmlns="http://www.w3.org/2000/svg" width="200" height="200"><path d="M275.2 941.59H138.667C61.867 941.59 0 883.99 0 811.455V130.923C0 58.389 61.867.789 138.667.789H800c76.8 0 138.667 57.6 138.667 130.134v142.933c0 21.333-17.067 38.4-38.4 38.4s-38.4-17.067-38.4-38.4V130.923c0-27.734-27.734-51.2-59.734-51.2H140.8c-34.133 0-59.733 23.466-59.733 51.2v678.4c0 29.866 27.733 51.2 59.733 51.2h134.4c21.333 0 38.4 17.066 38.4 38.4 0 23.466-17.067 42.666-38.4 42.666z"/><path d="M861.867 1018.39h-313.6c-87.467 0-155.734-70.4-155.734-155.734s70.4-155.733 155.734-155.733h313.6c87.466 0 155.733 70.4 155.733 155.733s-70.4 155.733-155.733 155.733zm-313.6-234.667c-42.667 0-78.934 34.133-78.934 78.933s34.134 78.933 78.934 78.933h313.6c42.666 0 78.933-34.133 78.933-78.933s-34.133-78.933-78.933-78.933h-313.6zM704 627.989c-87.467 0-155.733-70.4-155.733-155.733S618.667 316.523 704 316.523s155.733 70.4 155.733 155.733S791.467 627.989 704 627.989zm0-234.666c-42.667 0-78.933 34.133-78.933 78.933S659.2 551.189 704 551.189c42.667 0 78.933-34.133 78.933-78.933S748.8 393.323 704 393.323zm-194.133-78.934H275.2c-21.333 0-38.4-17.066-38.4-38.4s17.067-38.4 38.4-38.4h234.667c21.333 0 38.4 17.067 38.4 38.4s-17.067 38.4-38.4 38.4z"/></svg>