<svg class="icon" viewBox="0 0 1024 1024" xmlns="http://www.w3.org/2000/svg" width="200" height="200"><path d="M217.899 108.501c6.4-53.333 53.333-93.866 108.8-93.866h307.2c55.466 0 100.266 40.533 108.8 93.866h72.533c59.733 0 108.8 49.067 108.8 108.8v305.067c0 21.333-17.067 36.267-36.267 36.267S847.232 543.7 847.232 524.5v-307.2c0-19.2-14.933-34.133-34.133-34.133h-74.667c-10.667 49.067-55.467 85.333-106.667 85.333H326.7c-51.2 0-96-36.266-106.667-85.333h-74.667c-19.2 0-34.133 14.933-34.133 34.133v665.6c0 19.2 14.933 34.134 34.133 34.134H505.9c21.333 0 36.266 17.066 36.266 36.266S525.1 989.568 505.9 989.568H145.365c-29.866 0-57.6-10.667-76.8-32s-32-44.8-32-72.533V217.3c0-59.733 49.067-108.8 108.8-108.8H217.9zm108.8-19.2c-19.2 0-34.134 14.934-34.134 34.134V159.7c0 19.2 14.934 34.134 34.134 34.134h307.2c19.2 0 34.133-14.934 34.133-34.134v-36.266c0-19.2-14.933-34.134-34.133-34.134h-307.2zm-155.734 281.6c0-21.333 17.067-36.266 36.267-36.266h537.6c21.333 0 36.267 17.066 36.267 36.266s-17.067 36.267-36.267 36.267H209.365c-21.333 2.133-38.4-14.933-38.4-36.267zm0 179.2c0-21.333 17.067-36.266 36.267-36.266h324.267c21.333 0 36.266 17.066 36.266 36.266S550.7 586.368 531.5 586.368H209.365c-21.333 2.133-38.4-14.933-38.4-36.267zm2.134 181.334c0-21.334 17.066-36.267 36.266-36.267h230.4c21.334 0 36.267 17.067 36.267 36.267 0 21.333-17.067 36.266-36.267 36.266h-230.4c-19.2 0-36.266-17.066-36.266-36.266z"/><path d="M778.965 528.768c12.8 2.133 23.467 10.667 29.867 23.467l12.8 32c6.4 2.133 10.667 4.266 17.067 8.533l34.133-10.667c12.8-4.266 25.6 0 36.267 8.534 19.2 17.066 36.266 38.4 49.066 61.866 6.4 10.667 6.4 25.6 0 36.267l-21.333 29.867c2.133 6.4 2.133 12.8 4.267 17.066l29.866 19.2c10.667 6.4 17.067 19.2 17.067 34.134-2.133 25.6-8.533 53.333-17.067 76.8-4.266 12.8-17.066 21.333-29.866 23.466l-34.134 4.267c-4.266 4.267-8.533 10.667-10.666 14.933l2.133 34.134c2.133 12.8-4.267 25.6-14.933 34.133-21.334 14.933-44.8 27.733-70.4 34.133-12.8 4.267-25.6 0-36.267-8.533l-25.6-23.467h-19.2l-25.6 23.467c-10.667 8.533-23.467 12.8-36.267 8.533-25.6-8.533-49.066-19.2-70.4-34.133-10.666-8.533-17.066-21.333-14.933-34.133l2.133-34.134c-4.266-4.266-8.533-8.533-10.666-14.933l-38.4-4.267c-12.8-2.133-23.467-10.666-29.867-23.466-10.667-23.467-14.933-51.2-17.067-76.8 0-12.8 6.4-25.6 17.067-34.134l29.867-19.2c2.133-6.4 2.133-12.8 4.266-17.066L525.1 688.768c-6.4-10.667-6.4-25.6 0-36.267 12.8-23.466 29.866-44.8 49.066-61.866 10.667-8.534 23.467-12.8 36.267-8.534l34.133 10.667c6.4-2.133 10.667-6.4 17.067-8.533l12.8-32c4.267-12.8 14.933-21.334 29.867-23.467 21.333-4.267 49.066-4.267 74.666 0zm-46.933 70.4l-10.667 27.733c-4.266 10.667-12.8 19.2-23.466 21.334-10.667 4.266-21.334 8.533-32 14.933-8.534 6.4-21.334 8.533-32 4.267l-27.734-8.534c-2.133 4.267-6.4 6.4-8.533 10.667l14.933 25.6c6.4 10.667 6.4 21.333 2.134 32-4.267 10.667-6.4 23.467-8.534 34.133 0 10.667-6.4 21.334-17.066 27.734l-21.334 14.933c0 4.267 2.134 8.533 2.134 12.8l27.733 4.267c10.667 2.133 21.333 8.533 27.733 17.066 6.4 10.667 12.8 19.2 21.334 27.734s12.8 19.2 10.666 29.866l-2.133 27.734 12.8 6.4 21.333-19.2c8.534-8.534 19.2-10.667 29.867-10.667 12.8 2.133 23.467 2.133 36.267 0 10.666-2.133 21.333 2.133 29.866 10.667l21.334 19.2 12.8-6.4-2.134-27.734c0-10.666 4.267-21.333 10.667-29.866 8.533-8.534 17.067-17.067 21.333-27.734 6.4-10.666 14.934-17.066 27.734-17.066l27.733-4.267c2.133-4.267 2.133-8.533 2.133-12.8L883.5 789.035c-8.534-6.4-14.934-17.067-17.067-27.734 0-12.8-4.267-23.466-8.533-34.133s-2.134-21.333 2.133-32l14.933-25.6c-2.133-4.267-6.4-6.4-8.533-10.667l-27.733 8.534c-10.667 4.266-21.334 2.133-32-4.267-10.667-6.4-21.334-10.667-32-14.933-10.667-4.267-19.2-10.667-23.467-21.334l-10.667-27.733h-8.533z"/></svg>