<svg xmlns="http://www.w3.org/2000/svg" viewBox="0 0 17 17"><path d="M12.3.5c1.3 0 2.3 1 2.3 2.3v3.8c0 .4-.3.7-.8.7-.4 0-.8-.3-.8-.7V2.8c0-.4-.4-.8-.8-.8H2.8c-.4 0-.8.3-.8.8v11.5c0 .4.4.8.8.8H9c.4 0 .7.3.7.7 0 .4-.3.7-.7.7H2.8c-1.3 0-2.3-1-2.3-2.3V2.8C.5 1.6 1.5.5 2.8.5h9.5zm3.5 8.6c.4.2.5.6.4.9v.1l-.8 1.4h.5c.4 0 .7.3.7.7 0 .4-.3.7-.7.7h-1.3v.4h1.3c.4 0 .7.3.7.7s-.3.7-.7.7h-1.3v.7c0 .4-.3.7-.7.7s-.7-.3-.7-.7v-.7h-1.3c-.4 0-.7-.3-.7-.7s.3-.7.7-.7h1.3v-.4h-1.3c-.4 0-.7-.3-.7-.7 0-.4.3-.7.7-.7h.4l-.7-1.3c-.2-.3-.1-.7.2-.9.3-.2.7-.1.9.2l1 1.8s0 .1.1.1h.1v-.2l1-1.8c.2-.3.6-.4.9-.3zm-8.5 2.6c.4 0 .7.3.7.7 0 .4-.3.7-.7.7h-3c-.4 0-.7-.3-.7-.6v-.1c0-.4.3-.7.7-.7h3zm2.3-3.8c.4 0 .7.3.7.7 0 .4-.3.7-.7.7H4.3c-.4 0-.7-.3-.7-.6v-.1c0-.4.3-.7.7-.7h5.3zM10.9 4c.4 0 .7.3.7.7 0 .4-.3.7-.7.7H4.3c-.4 0-.7-.3-.7-.6v-.1c0-.4.3-.7.7-.7h6.6z"/></svg>