<svg version="1.1" id="图层_1" xmlns="http://www.w3.org/2000/svg" x="0" y="0" viewBox="0 0 17 17" xml:space="preserve"><style>.st0{fill:#44b7ee}</style><g id="个人中心"><g id="gerenzhongxin" transform="translate(1.5 .5)"><path id="形状" class="st0" d="M6.3 14.7H2.1c-.4 0-.7-.3-.7-.7v-2c0-1.8 1.6-3.3 3.5-3.3h4.2c.7 0 1.4.2 2 .6.3.2.8.1 1-.1.2-.3.2-.7-.2-.9-.8-.6-1.8-.9-2.9-.9H4.9C2.2 7.3 0 9.4 0 12v2c0 1.1.9 2 2.1 2h4.2c.4 0 .7-.3.7-.7 0-.3-.3-.6-.7-.6zm.7-8c1.9 0 3.5-1.5 3.5-3.3S8.9 0 7 0 3.5 1.5 3.5 3.3 5.1 6.7 7 6.7zm0-5.4c1.2 0 2.1.9 2.1 2s-.9 2-2.1 2-2.1-.9-2.1-2 .9-2 2.1-2z"/><path class="st0" d="M8.4 12.3c0 .4.3.7.7.7h4.2c.4 0 .7-.3.7-.7 0-.4-.3-.7-.7-.7H9.1c-.4.1-.7.4-.7.7zm4.9 2.4H9.1c-.4 0-.7.3-.7.7 0 .4.3.7.7.7h4.2c.4 0 .7-.3.7-.7 0-.4-.3-.7-.7-.7z"/></g></g></svg>