<?xml version="1.0" encoding="utf-8"?>
<!-- Generator: Adobe Illustrator 23.0.0, SVG Export Plug-In . SVG Version: 6.00 Build 0)  -->
<svg version="1.1" id="图层_1" xmlns="http://www.w3.org/2000/svg" xmlns:xlink="http://www.w3.org/1999/xlink" x="0px" y="0px"
	 viewBox="0 0 17 17" style="enable-background:new 0 0 17 17;" xml:space="preserve">
<style type="text/css">
	.st0{fill:#44B7EE;}
	.st1{fill-rule:evenodd;clip-rule:evenodd;fill:#44B7EE;}
</style>
<title>画板@2x</title>
<g id="画板">
	<g id="编组" transform="translate(0.750337, 1.964756)">
		<path id="矩形" class="st0" d="M8.3,0.1l6.9,3.4c0.3,0.1,0.4,0.5,0.3,0.8c-0.1,0.1-0.2,0.2-0.3,0.3L8.3,8.1
			C8,8.3,7.5,8.3,7.2,8.1L0.3,4.6C0,4.5-0.1,4.1,0.1,3.8c0.1-0.1,0.2-0.2,0.3-0.3l6.9-3.4C7.5,0,8,0,8.3,0.1z M7.7,1.2L2,4.1L7.7,7
			l5.8-2.9L7.7,1.2z"/>
		<path class="st0" d="M13.2,4.3v6.5c0,1.3-1.1,2.4-2.4,2.4H4.7c-1.3,0-2.4-1.1-2.4-2.4V4.3l4.9,2.4c0.3,0.2,0.7,0.2,1.1,0L13.2,4.3
			z M12,6.3L8.8,7.8C8.2,8.1,7.5,8.2,6.9,7.9L6.7,7.8L3.5,6.3l0,4.5c0,0.6,0.5,1.1,1.1,1.2l0.1,0h6.1c0.6,0,1.1-0.5,1.2-1.1l0-0.1
			L12,6.3z"/>
		<path class="st1" d="M14.5,6.6c0.3,0,0.6,0.3,0.6,0.6v1.2c0,0.3-0.3,0.6-0.6,0.6s-0.6-0.3-0.6-0.6V7.3C13.9,6.9,14.2,6.6,14.5,6.6
			z"/>
		<polygon id="路径-13" class="st0" points="14.8,4.1 14.8,7.4 14.2,7.4 14.2,4.1 		"/>
	</g>
</g>
</svg>
