<svg class="icon" viewBox="0 0 1024 1024" xmlns="http://www.w3.org/2000/svg" width="128" height="128"><path d="M984.009 678.916a63.624 63.624 0 0 0-63.625-63.624 62.913 62.913 0 0 0-59.744 44.227l-.905-.323a356.399 356.399 0 1 1-335.708-475.371 353.166 353.166 0 0 1 122.528 22.5l-44.873 86.062a31.683 31.683 0 0 0-8.47 21.596 34.592 34.592 0 0 0 32.329 31.747h2.069l317.99-13.643a31.812 31.812 0 0 0 25.476-48.882L800.313 14.742a31.812 31.812 0 0 0-55.024 2.393l-39.313 75.198A483.647 483.647 0 1 0 524.026 1024a484.164 484.164 0 0 0 453.517-316.828h-.712a62.331 62.331 0 0 0 7.113-27.932z"/></svg>