<svg class="icon" viewBox="0 0 1024 1024" xmlns="http://www.w3.org/2000/svg" width="200" height="200"><path d="M70.4 642.133c6.4 0 12.8 2.134 17.067 4.267l4.266 2.133L512 938.667l420.267-290.134 12.8-6.4h8.533c12.8 0 25.6 6.4 32 17.067 10.667 17.067 8.533 38.4-6.4 51.2l-2.133 2.133L533.333 1017.6c-6.4 4.267-12.8 6.4-21.333 6.4-6.4 0-12.8-2.133-19.2-4.267l-2.133-2.133-441.6-305.067c-8.534-6.4-14.934-14.933-17.067-25.6-2.133-10.666 0-21.333 6.4-29.866 6.4-8.534 19.2-14.934 32-14.934zm0-168.533c6.4 0 12.8 2.133 17.067 4.267L91.733 480 512 770.133 932.267 480l12.8-6.4h8.533c12.8 0 25.6 6.4 32 17.067 10.667 17.066 8.533 38.4-6.4 51.2L977.067 544 533.333 849.067c-6.4 4.266-14.933 6.4-21.333 6.4-6.4 0-12.8-2.134-19.2-4.267l-2.133-2.133L49.067 544c-8.534-6.4-14.934-14.933-17.067-25.6-2.133-10.667 0-21.333 6.4-29.867C44.8 480 57.6 473.6 70.4 473.6zM512 0c6.4 0 12.8 2.133 19.2 4.267l2.133 2.133 441.6 305.067c17.067 12.8 21.334 36.266 10.667 53.333-2.133 2.133-4.267 6.4-6.4 8.533l-2.133 2.134-443.734 305.066c-4.266 4.267-10.666 6.4-17.066 6.4H512c-6.4 0-12.8-2.133-19.2-4.266l-2.133-2.134-441.6-305.066C32 362.667 27.733 339.2 38.4 322.133c2.133-2.133 4.267-6.4 8.533-8.533l2.134-2.133L490.667 6.4c6.4-4.267 12.8-6.4 21.333-6.4zm0 70.4L115.2 343.467 512 616.533l396.8-273.066L512 70.4z"/></svg>