<svg class="icon" viewBox="0 0 1024 1024" xmlns="http://www.w3.org/2000/svg" width="200" height="200"><path d="M747.34 374.724h-6.024l-12.047 24.094c-6.024 12.047-12.047 18.07-24.094 24.094-12.047 6.024-24.095 6.024-30.118 12.047-6.024 6.024-18.07 6.024-30.118 6.024l-24.094-12.047c0 6.023-6.023 6.023-6.023 12.047l12.047 24.094c6.023 12.047 6.023 18.07 0 30.117 0 12.047-6.024 24.094-6.024 36.142 0 12.047-6.023 18.07-18.07 24.094l-18.071 18.07v12.047l30.118 6.024c12.047 0 18.07 6.023 24.094 12.047 6.023 12.047 12.047 18.07 24.094 24.094 6.023 6.024 12.047 18.07 12.047 30.118v30.117c6.023 0 6.023 6.024 12.047 6.024l18.07-18.07c6.024-6.024 18.071-12.048 30.118-12.048h36.141c12.047 0 24.095 0 30.118 12.047l18.07 18.07c6.024 0 6.024-6.023 12.048-6.023V657.83c0-12.047 6.023-24.094 12.047-30.118l24.094-24.094c6.023-12.047 12.047-18.07 24.094-18.07l30.118-6.024v-12.047l-24.094-18.07c-18.071 0-24.095-12.048-24.095-18.071 0-12.048-6.023-24.095-6.023-30.118-6.024-12.047 0-24.094 0-30.118l12.047-24.094c0-6.023-6.024-6.023-6.024-12.047l-24.094 6.024c-12.047 6.023-24.094 0-30.117-6.024-12.047-6.023-18.07-12.047-30.118-12.047-12.047-6.024-18.07-12.047-24.094-24.094l-12.047-24.094h-6.024zm-36.142-72.283c24.094-6.023 48.188-6.023 78.306 0 12.047 0 24.094 12.047 30.118 24.095l12.047 30.117c6.023 0 12.047 6.024 18.07 6.024l30.118-12.047c12.047-6.024 24.094 0 36.141 6.023 18.07 18.07 36.141 36.141 48.188 60.235 6.024 12.048 6.024 24.095 0 36.142l-24.094 36.14c0 6.024 0 12.048 6.024 18.071l30.117 18.071c12.047 6.024 18.071 18.07 18.071 30.118 0 24.094-6.024 48.188-18.07 72.282-12.048 12.047-24.095 24.094-36.142 24.094l-36.14 6.024c-6.024 6.023-6.024 12.047-12.048 12.047v36.14c0 12.048-6.024 24.095-18.07 30.119-18.071 12.047-42.165 24.094-66.26 30.117-12.046 6.024-24.094 0-36.14-6.023l-12.048-24.094h-18.07l-24.094 24.094c-12.047 12.047-24.094 12.047-36.142 12.047-24.094-6.024-48.188-18.07-66.258-30.118-12.047-6.023-18.07-18.07-18.07-30.118v-36.14c0-12.048-6.024-12.048-6.024-18.071l-36.142-6.024c-12.047 0-24.094-12.047-30.117-24.094-6.024-18.07-12.047-48.188-12.047-72.282 0-12.047 6.023-24.094 18.07-30.118l30.118-18.07c0-6.024 0-12.048 6.023-18.071l-24.094-30.118c-6.023-12.047-6.023-24.094 0-36.141 12.047-24.094 30.118-42.165 48.189-60.235 6.023-6.024 18.07-12.047 30.117-6.024l30.118 12.047c6.023 0 12.047-6.023 18.07-6.023l12.047-30.118c6.024-18.07 18.071-24.094 30.118-30.118zm42.165 186.73c-24.094 0-48.188 18.07-48.188 48.188 0 24.094 18.07 48.188 48.188 48.188 24.094 0 48.188-18.07 48.188-48.188-6.023-24.094-24.094-48.188-48.188-48.188zm-120.47 48.188c0-66.259 54.211-120.47 120.47-120.47s120.47 54.211 120.47 120.47-54.211 120.47-120.47 120.47-120.47-54.211-120.47-120.47z"/><path d="M36.563 218.112c0-60.235 48.188-108.424 108.423-108.424h662.589c60.235 0 108.423 48.189 108.423 108.424v84.33c0 18.07-18.07 36.14-36.141 36.14s-36.141-18.07-36.141-36.14v-84.33c0-24.094-18.07-42.165-42.165-42.165H138.963c-24.094 0-42.165 18.07-42.165 42.165v385.506c0 24.094 18.07 42.165 42.165 42.165h361.412c18.07 0 36.14 18.07 36.14 36.14s-12.046 36.142-36.14 36.142v126.494h216.847c18.07 0 36.14 18.07 36.14 36.141s-18.07 36.141-36.14 36.141H229.316c-18.07 0-36.141-18.07-36.141-36.14s18.07-36.142 36.14-36.142H440.14V718.065H144.986c-60.235 0-108.423-48.188-108.423-108.424V218.112z"/></svg>