<svg class="icon" width="128" height="128" viewBox="0 0 1024 1024" xmlns="http://www.w3.org/2000/svg"><path d="M1013.345 415.775c-5.59-29.215-23.05-48.041-44.39-47.473h-4.337c-73.262 0-132.828-59.566-132.828-132.828 0-24.192 11.525-50.555 11.525-50.78 11.3-25.447 2.627-56.714-20.198-72.694l-1.255-.799-127.81-70.978-1.255-.569c-7.531-3.307-15.861-4.905-24.647-4.905-18.258 0-36.06 7.302-47.698 19.4-15.632 16.092-64.82 57.969-104.53 57.969-40.054 0-89.58-42.68-105.216-58.998-11.756-12.436-29.67-19.743-48.159-19.743-8.673 0-16.773 1.598-24.192 4.793l-1.597.455-132.26 72.689-1.254.911c-22.938 15.975-31.724 47.13-20.43 72.576.113.23 11.526 26.819 11.526 50.898 0 73.262-59.566 132.828-132.828 132.828h-4.45c-21.34-.568-38.799 18.258-44.39 47.473-.456 2.396-10.726 57.17-10.726 100.193 0 43.136 10.27 97.91 10.726 100.194 5.478 28.871 22.482 47.585 43.592 47.585h5.248c73.262 0 132.828 59.566 132.828 132.828 0 24.192-11.525 50.555-11.525 50.78-11.3 25.447-2.627 56.714 20.198 72.694l1.255.799 125.414 70.18 1.254.568c7.532 3.307 15.75 5.023 24.648 5.023 18.37 0 36.403-7.532 48.041-20.199 14.72-15.974 65.843-61.624 106.813-61.624 41.309 0 91.633 45.302 107.495 62.76 11.638 12.898 29.783 20.542 48.271 20.542 8.673 0 16.66-1.597 24.192-4.792l1.367-.568 129.751-72.233 1.255-.912c22.825-15.974 31.61-47.242 20.31-72.576-.112-.23-11.524-26.818-11.524-50.898 0-73.262 59.566-132.828 132.828-132.828h4.449c21.34.456 38.8-18.258 44.39-47.472.456-2.284 10.727-57.058 10.727-100.194.01-43.018-10.143-97.792-10.604-100.075zm-502.676 276.5c-97.567 0-176.993-79.426-176.993-176.993s79.426-176.993 176.993-176.993 176.993 79.426 176.993 176.993-79.426 176.993-176.993 176.993z"/><path d="M509.2 411.3c-56.403 0-102.4 45.9-102.4 102.4 0 56.402 45.9 102.4 102.4 102.4 56.401 0 102.4-45.901 102.4-102.4-.098-56.5-45.901-102.4-102.4-102.4z"/></svg>