<svg class="icon" viewBox="0 0 1024 1024" xmlns="http://www.w3.org/2000/svg" width="128" height="128"><path d="M365.732 585.157a292.562 292.562 0 0 0 292.562-292.562 285.248 285.248 0 0 0-40.959-146.281 292.562 292.562 0 1 0-251.603 438.843zm370.822-15.36a230.393 230.393 0 0 0 0-460.053h-11.702a391.302 391.302 0 0 1 43.153 182.85A399.347 399.347 0 0 1 667.07 558.827a219.422 219.422 0 0 0 69.483 10.971zm-198.21 106.786a212.839 212.839 0 0 0-26.331-8.777 266.231 266.231 0 0 0-73.14-9.509H292.59a271.351 271.351 0 0 0-73.14 9.509 292.562 292.562 0 0 0-134.579 73.14A292.562 292.562 0 0 0 .03 950.86 73.14 73.14 0 0 0 73.17 1024h585.125a73.14 73.14 0 0 0 73.14-73.14 219.422 219.422 0 0 0 0-38.034 292.562 292.562 0 0 0-193.09-236.243zm254.528-49.736H680.236a195.285 195.285 0 0 0-46.81 5.12 400.079 400.079 0 0 1 219.422 282.322h114.099a57.05 57.05 0 0 0 56.318-56.318 231.855 231.855 0 0 0-230.393-231.124z"/></svg>