<?xml version="1.0" encoding="utf-8"?>
<!-- Generator: Adobe Illustrator 25.3.1, SVG Export Plug-In . SVG Version: 6.00 Build 0)  -->
<svg version="1.1" id="图层_1" xmlns="http://www.w3.org/2000/svg" xmlns:xlink="http://www.w3.org/1999/xlink" x="0px" y="0px"
	 viewBox="0 0 14 14" style="enable-background:new 0 0 14 14;" xml:space="preserve">
<style type="text/css">
	.st0{fill:#E1EBFF;}
</style>
<g id="协议管理">
	<g id="xieyiguanli" transform="translate(0.500000, 0.500000)">
		<path id="形状" class="st0" d="M10.7,13H2.3C1,13,0,12,0,10.7V2.3C0,1,1,0,2.3,0h8.4C12,0,13,1,13,2.3v8.4C13,12,12,13,10.7,13z
			 M2.3,0.9c-0.7,0-1.4,0.7-1.4,1.4v8.4c0,0.7,0.7,1.4,1.4,1.4h8.4c0.7,0,1.4-0.6,1.4-1.4V2.3c0-0.7-0.6-1.4-1.4-1.4H2.3z"/>
		<path id="形状_1_" class="st0" d="M10,5.9c-0.1,0-0.3-0.1-0.4-0.2L8.4,4.5L7.2,5.8C7.1,5.9,6.9,5.9,6.7,5.8
			C6.5,5.8,6.4,5.7,6.4,5.5V0.8c0-0.3,0.2-0.5,0.5-0.5c0.3,0,0.5,0.2,0.5,0.5v3.5l0.7-0.8c0.1-0.1,0.3-0.2,0.4-0.2s0.3,0.1,0.4,0.2
			l0.7,0.8V0.8c0-0.3,0.2-0.5,0.5-0.5c0.3,0,0.5,0.2,0.5,0.5v4.6c0,0.2-0.1,0.4-0.3,0.5C10.1,5.8,10.1,5.9,10,5.9L10,5.9z M10,9.5
			H2.4C2.1,9.5,2,9.3,2,9c0-0.3,0.2-0.5,0.5-0.5H10c0.3,0,0.5,0.2,0.5,0.5S10.3,9.5,10,9.5z"/>
	</g>
</g>
</svg>
