<?xml version="1.0" encoding="utf-8"?>
<!-- Generator: Adobe Illustrator 25.3.1, SVG Export Plug-In . SVG Version: 6.00 Build 0)  -->
<svg version="1.1" id="图层_1" xmlns="http://www.w3.org/2000/svg" xmlns:xlink="http://www.w3.org/1999/xlink" x="0px" y="0px"
	 viewBox="0 0 14 14" style="enable-background:new 0 0 14 14;" xml:space="preserve">
<style type="text/css">
	.st0{fill:#E1EBFF;}
</style>
<g id="首页备份">
	<g id="shouye">
		<path id="形状" class="st0" d="M6.2,0.3c0.4-0.4,1.1-0.4,1.5-0.1l0.1,0.1l6.1,5.9C14,6.3,14,6.6,13.9,6.7l-0.1,0.1
			C13.7,7,13.5,7,13.3,6.9l-0.1-0.1l-0.1-0.1l0,4.4c0,1.4-1.1,2.7-2.6,2.8l-0.2,0l-0.2,0l-6.4,0c-1.6,0-2.9-1.1-3-2.6l0-0.2l0-4.4
			L0.8,6.8C0.6,6.9,0.4,7,0.3,6.9l-0.1,0L0.1,6.8C0,6.7,0,6.4,0.1,6.3l0.1-0.1L6.2,0.3z M6.4,1.4L6.4,1.4L1.8,5.8v5.3
			c0,1,0.8,1.9,1.9,2l0.2,0l1,0l0-0.1l0-3.9C4.8,8,5.7,7,6.9,6.9l0.2,0h0.3c1.2,0,2.2,0.9,2.2,2l0,0.2l0,3.9l0,0.1l0.6,0
			c1.1,0,1.9-0.8,2-1.8l0-0.2l0-5.2l0,0L7.6,1.5C7.3,1.2,6.9,1.1,6.5,1.3L6.4,1.4z M7.3,7.9H7C6.3,7.9,5.7,8.3,5.7,9l0,0.1l0,3.8
			l0,0.2h2.9l0-0.1l0-3.9C8.6,8.4,8.1,7.9,7.3,7.9z"/>
	</g>
</g>
</svg>
