<?xml version="1.0" encoding="utf-8"?>
<!-- Generator: Adobe Illustrator 25.3.1, SVG Export Plug-In . SVG Version: 6.00 Build 0)  -->
<svg version="1.1" id="图层_1" xmlns="http://www.w3.org/2000/svg" xmlns:xlink="http://www.w3.org/1999/xlink" x="0px" y="0px"
	 viewBox="0 0 14 14" style="enable-background:new 0 0 14 14;" xml:space="preserve">
<style type="text/css">
	.st0{fill:#E1EBFF;}
</style>
<g id="运维管理">
	<g id="yunweiguanli" transform="translate(0.500000, 0.500000)">
		<path id="路径" class="st0" d="M9.1,10.3c0,0.4,0.4,0.8,0.8,0.8s0.8-0.4,0.8-0.8s-0.4-0.8-0.8-0.8S9.1,9.8,9.1,10.3L9.1,10.3z"
			/>
		<path id="形状" class="st0" d="M11.5,7.6H8.4l-1.5,2.7L8.4,13h3.1l1.5-2.7L11.5,7.6z M10.8,8.7l0.9,1.6l-0.9,1.6H9l-0.9-1.6
			L9,8.7H10.8L10.8,8.7z"/>
		<path id="路径_1_" class="st0" d="M5.5,1.3c1.1-1.1,2.7-1.5,4.2-1.1C10.2,0.3,10.4,1,10,1.3L8.9,2.4C8.7,2.6,8.6,2.9,8.6,3.2
			S8.7,3.7,8.9,4c0.4,0.4,1,0.4,1.4,0.1L10.4,4L10.5,4l1.1-1.1c0.3-0.3,1-0.2,1.2,0.3c0.3,1,0.2,2.1-0.3,3.1
			c-0.1,0.3-0.5,0.4-0.7,0.2c-0.3-0.1-0.4-0.4-0.3-0.7c0.2-0.5,0.3-1,0.3-1.5l0-0.1l-0.6,0.6l-0.1,0.1c-0.9,0.8-2.2,0.7-3-0.1
			s-0.8-2.1-0.1-3l0.1-0.1l0.6-0.6l-0.1,0C7.8,1.1,7,1.4,6.4,1.9L6.3,2C5.4,2.9,5.1,4,5.4,5.2l0,0.1l0.1,0.4l-4,3.1L1.4,8.8
			C0.9,9.4,1,10.5,1.6,11.1c0,0,0,0,0.1,0.1c0.7,0.6,1.8,0.6,2.3,0l0.9-1.1c0.2-0.2,0.5-0.3,0.8-0.1c0.2,0.2,0.3,0.5,0.1,0.8
			l-0.9,1.1C3.9,13,2.1,13,1,12c0,0-0.1-0.1-0.1-0.1c-1-1-1.2-2.8-0.2-3.8L0.8,8l0,0l3.5-2.7l0-0.1C4,3.8,4.4,2.4,5.4,1.4L5.5,1.3
			L5.5,1.3z"/>
		<path id="路径_2_" class="st0" d="M3.2,9.2c0,0.2,0.1,0.4,0.3,0.5c0.2,0.1,0.4,0.1,0.5,0c0.2-0.1,0.3-0.3,0.3-0.5
			C4.2,9,4.1,8.8,4,8.7c-0.2-0.1-0.4-0.1-0.5,0C3.3,8.8,3.2,9,3.2,9.2L3.2,9.2z"/>
	</g>
</g>
</svg>
