<?xml version="1.0" encoding="utf-8"?>
<!-- Generator: Adobe Illustrator 25.3.1, SVG Export Plug-In . SVG Version: 6.00 Build 0)  -->
<svg version="1.1" id="图层_1" xmlns="http://www.w3.org/2000/svg" xmlns:xlink="http://www.w3.org/1999/xlink" x="0px" y="0px"
	 viewBox="0 0 14 14" style="enable-background:new 0 0 14 14;" xml:space="preserve">
<style type="text/css">
	.st0{fill:#E1EBFF;}
</style>
<g id="消息中心">
	<g id="xiaoxi" transform="translate(0.500000, 1.000000)">
		<path id="形状" class="st0" d="M11.2,10.4H7l-1.3,1.5C5.6,12,5.4,12,5.3,12c-0.2,0-0.3-0.2-0.4-0.3c-0.1-0.2,0-0.3,0.1-0.5
			l1.5-1.6c0.1-0.1,0.2-0.2,0.4-0.2h4.4c0.2,0,0.4-0.1,0.6-0.2C11.9,9,12,8.8,12,8.6V1.8c0-0.2-0.1-0.4-0.2-0.6S11.4,1,11.2,1H1.8
			C1.6,1,1.4,1.1,1.2,1.2S1,1.6,1,1.8v6.8C1,8.8,1.1,9,1.2,9.2c0.2,0.2,0.4,0.2,0.6,0.2h2.1c0.3,0,0.5,0.2,0.5,0.5
			c0,0.3-0.2,0.5-0.5,0.5H1.8c-1,0-1.8-0.8-1.8-1.8V1.8C0,0.8,0.8,0,1.8,0h9.4c1,0,1.8,0.8,1.8,1.8v6.8C13,9.6,12.2,10.4,11.2,10.4z
			 M9.4,3.4c0.3,0,0.5,0.2,0.5,0.5S9.7,4.4,9.4,4.4H3.6c-0.3,0-0.5-0.2-0.5-0.5s0.2-0.5,0.5-0.5H9.4z M6.5,6C6.8,6,7,6.2,7,6.5
			S6.8,7,6.5,7H3.6C3.3,7,3.1,6.8,3.1,6.5S3.3,6,3.6,6H6.5z"/>
	</g>
</g>
</svg>
