<?xml version="1.0" encoding="utf-8"?>
<!-- Generator: Adobe Illustrator 25.3.1, SVG Export Plug-In . SVG Version: 6.00 Build 0)  -->
<svg version="1.1" id="图层_1" xmlns="http://www.w3.org/2000/svg" xmlns:xlink="http://www.w3.org/1999/xlink" x="0px" y="0px"
	 viewBox="0 0 14 14" style="enable-background:new 0 0 14 14;" xml:space="preserve">
<style type="text/css">
	.st0{fill:#E1EBFF;}
</style>
<g id="政企管理">
	<g id="zhengfufeiyinglijigou" transform="translate(0.500000, 0.500000)">
		<path id="形状" class="st0" d="M11.9,4.9H1.1c-0.2,0-0.3-0.1-0.4-0.3c-0.1-0.2,0-0.4,0.1-0.5l5.4-4.1C6.4,0,6.6,0,6.7,0.1
			l5.4,4.1c0.1,0.1,0.2,0.3,0.1,0.5C12.2,4.8,12.1,4.9,11.9,4.9z M2.3,4.1h8.4L6.5,0.9L2.3,4.1z"/>
		<path id="形状_1_" class="st0" d="M3.4,11.4C3.2,11.4,3,11.2,3,11V4.5c0-0.2,0.2-0.4,0.4-0.4s0.4,0.2,0.4,0.4V11
			C3.8,11.2,3.6,11.4,3.4,11.4z M2.1,11.4c-0.2,0-0.4-0.2-0.4-0.4V4.5c0-0.2,0.2-0.4,0.4-0.4s0.4,0.2,0.4,0.4V11
			C2.5,11.2,2.3,11.4,2.1,11.4z M5.3,11.4c-0.2,0-0.4-0.2-0.4-0.4V4.5c0-0.2,0.2-0.4,0.4-0.4c0.2,0,0.4,0.2,0.4,0.4V11
			C5.7,11.2,5.5,11.4,5.3,11.4z M7.7,11.4c-0.2,0-0.4-0.2-0.4-0.4V4.5c0-0.2,0.2-0.4,0.4-0.4c0.2,0,0.4,0.2,0.4,0.4V11
			C8.1,11.2,8,11.4,7.7,11.4z M9.6,11.4c-0.2,0-0.4-0.2-0.4-0.4V4.5c0-0.2,0.2-0.4,0.4-0.4S10,4.2,10,4.5V11
			C10,11.2,9.8,11.4,9.6,11.4z M10.9,11.4c-0.2,0-0.4-0.2-0.4-0.4V4.5c0-0.2,0.2-0.4,0.4-0.4c0.2,0,0.4,0.2,0.4,0.4V11
			C11.3,11.2,11.2,11.4,10.9,11.4z"/>
		<path id="形状_2_" class="st0" d="M12.6,13H0.4c-0.1,0-0.3-0.1-0.4-0.2s-0.1-0.3,0-0.4l1-1.6c0.1-0.1,0.2-0.2,0.3-0.2h10.2
			c0.1,0,0.3,0.1,0.3,0.2l1,1.6c0.1,0.1,0.1,0.3,0,0.4C12.9,12.9,12.7,13,12.6,13z M1.1,12.2h10.7l-0.5-0.8H1.6L1.1,12.2z"/>
		<path id="路径" class="st0" d="M5.8,2.8c0,0.4,0.3,0.7,0.7,0.7s0.7-0.3,0.7-0.7c0-0.2-0.1-0.5-0.3-0.6c-0.2-0.1-0.5-0.1-0.7,0
			C6,2.3,5.8,2.6,5.8,2.8L5.8,2.8z"/>
	</g>
</g>
</svg>
