<?xml version="1.0" encoding="utf-8"?>
<!-- Generator: Adobe Illustrator 25.3.1, SVG Export Plug-In . SVG Version: 6.00 Build 0)  -->
<svg version="1.1" id="图层_1" xmlns="http://www.w3.org/2000/svg" xmlns:xlink="http://www.w3.org/1999/xlink" x="0px" y="0px"
	 viewBox="0 0 14 14" style="enable-background:new 0 0 14 14;" xml:space="preserve">
<style type="text/css">
	.st0{fill:none;}
	.st1{fill:#E1EBFF;}
</style>
<g id="管理后台">
	<g id="xitongpeizhi">
		<rect id="矩形" class="st0" width="14" height="14"/>
		<path id="形状结合" class="st1" d="M13.1,0.5c0.2,0,0.4,0.2,0.4,0.5v8.8c0,0.3-0.2,0.5-0.4,0.5H7.4v2.4h2.9
			c0.2,0,0.4,0.2,0.4,0.5c0,0.3-0.2,0.5-0.4,0.5H3.6c-0.2,0-0.4-0.2-0.4-0.5c0-0.3,0.2-0.5,0.4-0.5h2.9v-2.4H0.9
			c-0.2,0-0.4-0.2-0.4-0.5V1c0-0.3,0.2-0.5,0.4-0.5H13.1z M12.6,1.4H1.4v7.9h11.2V1.4z M3.9,2.3c0.2,0,0.4,0.2,0.4,0.5v0.7
			c0.4,0.2,0.6,0.5,0.6,1c0,0.4-0.3,0.8-0.6,1v2.5c0,0.3-0.2,0.5-0.4,0.5S3.4,8.2,3.4,7.9V5.4c-0.4-0.2-0.6-0.5-0.6-1
			c0-0.4,0.3-0.8,0.6-1V2.8C3.4,2.5,3.6,2.3,3.9,2.3z M7,2.3c0.2,0,0.4,0.2,0.4,0.5v2.6c0.4,0.2,0.6,0.5,0.6,1c0,0.4-0.3,0.8-0.6,1
			v0.7c0,0.3-0.2,0.5-0.4,0.5S6.6,8.2,6.6,7.9V7.3c-0.4-0.2-0.6-0.5-0.6-1c0-0.4,0.3-0.8,0.6-1V2.8C6.6,2.5,6.8,2.3,7,2.3z
			 M10.1,2.3c0.2,0,0.4,0.2,0.4,0.5v0.7c0.4,0.2,0.6,0.5,0.6,1c0,0.4-0.3,0.8-0.6,1v2.5c0,0.3-0.2,0.5-0.4,0.5S9.7,8.2,9.7,7.9V5.4
			c-0.4-0.2-0.6-0.5-0.6-1c0-0.4,0.3-0.8,0.6-1V2.8C9.7,2.5,9.9,2.3,10.1,2.3z"/>
	</g>
</g>
</svg>
