<?xml version="1.0" encoding="utf-8"?>
<!-- Generator: Adobe Illustrator 25.3.1, SVG Export Plug-In . SVG Version: 6.00 Build 0)  -->
<svg version="1.1" id="图层_1" xmlns="http://www.w3.org/2000/svg" xmlns:xlink="http://www.w3.org/1999/xlink" x="0px" y="0px"
	 viewBox="0 0 14 14" style="enable-background:new 0 0 14 14;" xml:space="preserve">
<style type="text/css">
	.st0{fill:#E1EBFF;}
</style>
<g id="财务中心备份">
	<g id="caiwuguanli" transform="translate(1.000000, 0.000000)">
		<path id="形状" class="st0" d="M9.9,1.8H9.4c-0.2-1-1-1.8-2-1.8H1.5C0.7,0,0,0.7,0,1.5v11C0,13.3,0.7,14,1.5,14h9
			c0.8,0,1.5-0.7,1.5-1.5V3.9C12,2.7,11.1,1.8,9.9,1.8z M11.1,12.5c0,0.4-0.3,0.6-0.6,0.6h-9c-0.3,0-0.6-0.3-0.6-0.6v-11
			c0-0.3,0.3-0.6,0.6-0.6h5.9c0.5,0,1,0.4,1.2,0.9H2.9c-0.2,0-0.4,0.2-0.4,0.4c0,0.2,0.2,0.4,0.4,0.4h7c0.7,0,1.2,0.6,1.2,1.2V12.5z
			"/>
		<path id="路径" class="st0" d="M8.1,7.9c0.2,0,0.4-0.2,0.4-0.4S8.4,7,8.1,7H6.6l1.7-1.9c0.2-0.2,0.1-0.5,0-0.6
			C8,4.3,7.8,4.3,7.6,4.5L6,6.3L4.4,4.5C4.2,4.3,4,4.3,3.8,4.5c-0.2,0.2-0.2,0.4,0,0.6L5.4,7H3.9C3.6,7,3.4,7.2,3.4,7.4
			s0.2,0.4,0.4,0.4h1.7v1.8H3.9c-0.2,0-0.4,0.2-0.4,0.4s0.2,0.4,0.4,0.4h1.7v1.3c0,0.2,0.2,0.4,0.4,0.4s0.4-0.2,0.4-0.4v-1.3h1.7
			c0.2,0,0.4-0.2,0.4-0.4S8.4,9.6,8.1,9.6H6.4V7.9H8.1z"/>
	</g>
</g>
</svg>
