<?xml version="1.0" encoding="utf-8"?>
<!-- Generator: Adobe Illustrator 25.3.1, SVG Export Plug-In . SVG Version: 6.00 Build 0)  -->
<svg version="1.1" id="图层_1" xmlns="http://www.w3.org/2000/svg" xmlns:xlink="http://www.w3.org/1999/xlink" x="0px" y="0px"
	 viewBox="0 0 26 26" style="enable-background:new 0 0 26 26;" xml:space="preserve">
<style type="text/css">
	.st0{fill:#333333;}
</style>
<g id="画板">
	<g id="yunweidaping">
		<path id="形状" class="st0" d="M15.2,21.7v2.2h4.3V26h-13v-2.2h4.3v-2.2h-9c-0.5,0-1-0.2-1.3-0.5C0.2,20.8,0,20.3,0,19.8V3.3
			V1.9C0,0.8,0.8,0,1.9,0h22.3c0.5,0,1,0.2,1.3,0.5S26,1.4,26,1.9v18c0,1-0.8,1.9-1.9,1.9H15.2z M3.8,2.2H2.2v15.2h21.7V3.8V2.2H3.8
			z M13,20.6c0.4,0,0.7-0.2,0.9-0.5s0.2-0.7,0-1.1s-0.6-0.5-0.9-0.5c-0.6,0-1.1,0.5-1.1,1.1S12.4,20.6,13,20.6z M9.8,8.7h2.2v6.5
			H9.8V8.7z M5.4,10.8h2.2v4.3H5.4V10.8z M14.1,6.5h2.2v8.7h-2.2V6.5z M18.4,4.3h2.2v10.8h-2.2V4.3z"/>
	</g>
</g>
</svg>
