<?xml version="1.0" encoding="utf-8"?>
<!-- Generator: Adobe Illustrator 25.3.1, SVG Export Plug-In . SVG Version: 6.00 Build 0)  -->
<svg version="1.1" id="图层_1" xmlns="http://www.w3.org/2000/svg" xmlns:xlink="http://www.w3.org/1999/xlink" x="0px" y="0px"
	 viewBox="0 0 14 14" style="enable-background:new 0 0 14 14;" xml:space="preserve">
<style type="text/css">
	.st0{fill:#E1EBFF;}
</style>
<g id="保障服务">
	<g id="baozhang" transform="translate(0.500000, 0.500000)">
		<path id="形状" class="st0" d="M1.9,1.9c1-1,2.3-1.6,3.7-1.8C7.3-0.2,9,0.3,10.4,1.3c1.4,1,2.3,2.6,2.5,4.3
			c0.5,3.5-2,6.8-5.5,7.4c-1.5,0.2-3-0.1-4.3-0.9c-0.2-0.1-0.3-0.4-0.2-0.6c0.1-0.2,0.4-0.3,0.6-0.2C4.7,11.9,6,12.2,7.3,12
			c3-0.4,5.2-3.3,4.7-6.3C11.8,4.2,11,2.9,9.8,2C8.6,1.2,7.2,0.8,5.7,1C2.7,1.4,0.5,4.3,1,7.3c0.1,0.8,0.4,1.5,0.8,2.2
			c0.1,0.2,0.1,0.5-0.1,0.6C1.5,10.3,1.2,10.2,1,10c-0.5-0.8-0.8-1.7-1-2.6C-0.2,5.7,0.3,4,1.3,2.6C1.5,2.4,1.7,2.1,1.9,1.9L1.9,1.9
			z M4,3.2C4,3,4.2,2.9,4.4,2.9C4.7,3,4.8,3.1,4.8,3.3C4.7,3.9,4.6,4.4,4.5,4.6v4.6c0,0.2-0.2,0.4-0.4,0.4c-0.3,0-0.4-0.1-0.4-0.4
			v-3C3.3,6.5,3.1,6.4,3.1,6.1c0-0.1,0.1-0.3,0.2-0.6C3.5,4.9,3.8,4.1,4,3.2z M5.8,5.7C5.2,5.7,5,5.5,5,5.1V3.8
			c0-0.4,0.2-0.6,0.7-0.6h3c0.5,0,0.7,0.2,0.7,0.6v1.3c0,0.4-0.2,0.6-0.6,0.6H7.6v0.4h1.9c0.2,0,0.4,0.2,0.4,0.4
			c0,0.2-0.2,0.4-0.4,0.4H7.8c0.5,0.6,1.1,1.2,1.9,1.8C9.8,8.8,9.9,9,9.7,9.1c-0.2,0.2-0.5,0.2-0.8,0C8.6,8.9,8.1,8.5,7.6,7.9v1.4
			c0,0.2-0.2,0.4-0.4,0.4c-0.3,0-0.4-0.1-0.4-0.4V7.8C6.3,8.5,5.9,8.9,5.4,9.1C5.2,9.3,5,9.3,4.8,9.1C4.6,9,4.6,8.8,4.8,8.6
			C5.5,8.1,6,7.5,6.5,6.9H5.2c-0.3,0-0.4-0.1-0.5-0.4c0-0.2,0.2-0.4,0.5-0.4h1.6V5.7H5.8z M5.9,4.7c0,0.2,0,0.2,0.2,0.2h2.3
			c0.1,0,0.2,0,0.2-0.1V4.1c0-0.1-0.1-0.2-0.2-0.2H6.1C5.9,3.9,5.9,4,5.9,4.1V4.7z"/>
	</g>
</g>
</svg>
