<?xml version="1.0" encoding="utf-8"?>
<!-- Generator: Adobe Illustrator 25.3.1, SVG Export Plug-In . SVG Version: 6.00 Build 0)  -->
<svg version="1.1" id="图层_1" xmlns="http://www.w3.org/2000/svg" xmlns:xlink="http://www.w3.org/1999/xlink" x="0px" y="0px"
	 viewBox="0 0 14 14" style="enable-background:new 0 0 14 14;" xml:space="preserve">
<style type="text/css">
	.st0{fill:#E1EBFF;}
</style>
<g id="告警中心">
	<path id="形状" class="st0" d="M2.7,11.7c-0.2,0-0.4,0.2-0.4,0.4s0.2,0.4,0.4,0.4h8.7c0.2,0,0.4-0.2,0.4-0.4s-0.2-0.4-0.4-0.4
		H2.7z M2.7,10.8h8.7c0.7,0,1.3,0.6,1.3,1.3c0,0.7-0.6,1.3-1.3,1.3H2.7c-0.7,0-1.3-0.6-1.3-1.3C1.4,11.4,1.9,10.8,2.7,10.8z"/>
	<path id="路径" class="st0" d="M10.5,3c0,0.4,0.3,0.7,0.6,0.7s0.6-0.3,0.6-0.7s-0.3-0.7-0.6-0.7S10.5,2.6,10.5,3z"/>
	<path id="路径_1_" class="st0" d="M2.2,3c0,0.4,0.3,0.7,0.7,0.7S3.5,3.3,3.5,3S3.2,2.3,2.9,2.3S2.2,2.6,2.2,3z"/>
	<path id="路径_2_" class="st0" d="M6.6,8.6c0-0.2,0.2-0.4,0.4-0.4s0.4,0.2,0.4,0.4v2.2c0,0.2-0.2,0.4-0.4,0.4s-0.4-0.2-0.4-0.4
		V8.6z"/>
	<path id="形状_1_" class="st0" d="M7,9C6.5,9,6,8.7,5.7,8.2s-0.3-1.1,0-1.6S6.5,5.9,7,5.9c0.8,0,1.5,0.7,1.5,1.6S7.8,9,7,9L7,9z
		 M7,8.1c0.4,0,0.7-0.3,0.7-0.7c0-0.4-0.3-0.7-0.7-0.7S6.3,7.1,6.3,7.4C6.3,7.8,6.6,8.1,7,8.1z M11.8,6.8c-0.2,0-0.4-0.2-0.4-0.4
		s0.2-0.4,0.4-0.4h1.3c0.2,0,0.4,0.2,0.4,0.4s-0.2,0.4-0.4,0.4H11.8z M0.9,6.8c-0.2,0-0.4-0.2-0.4-0.4s0.2-0.4,0.4-0.4h1.3
		c0.2,0,0.4,0.2,0.4,0.4S2.5,6.8,2.2,6.8H0.9z M6.6,0.9c0-0.2,0.2-0.4,0.4-0.4s0.4,0.2,0.4,0.4v1.3c0,0.2-0.2,0.4-0.4,0.4
		S6.6,2.5,6.6,2.3V0.9z"/>
	<path id="路径_3_" class="st0" d="M3.8,11.3H2.9v-4C2.9,4.9,4.7,3,7,3s4.1,1.9,4.1,4.3v4h-0.9v-4c0-1.9-1.5-3.4-3.2-3.4
		S3.8,5.4,3.8,7.2V11.3L3.8,11.3z"/>
</g>
</svg>
