<?xml version="1.0" encoding="utf-8"?>
<!-- Generator: Adobe Illustrator 25.3.1, SVG Export Plug-In . SVG Version: 6.00 Build 0)  -->
<svg version="1.1" id="图层_1" xmlns="http://www.w3.org/2000/svg" xmlns:xlink="http://www.w3.org/1999/xlink" x="0px" y="0px"
	 viewBox="0 0 14 14" style="enable-background:new 0 0 14 14;" xml:space="preserve">
<style type="text/css">
	.st0{fill:#E1EBFF;}
	.st1{fill-rule:evenodd;clip-rule:evenodd;fill:#E1EBFF;}
</style>
<g id="培训中心">
	<g id="编组" transform="translate(0.500000, 1.500000)">
		<path id="矩形" class="st0" d="M7,0.1L12.7,3c0.3,0.1,0.4,0.4,0.2,0.7c0,0.1-0.1,0.2-0.2,0.2L7,6.7C6.7,6.9,6.3,6.9,6,6.7
			L0.3,3.9C0,3.7-0.1,3.4,0.1,3.2C0.1,3.1,0.2,3,0.3,3L6,0.1C6.3,0,6.7,0,7,0.1z M6.5,1L1.6,3.4l4.9,2.4l4.9-2.4L6.5,1z"/>
		<path id="矩形_1_" class="st0" d="M11.1,3.6V9c0,1.1-0.9,2-2,2H4c-1.1,0-2-0.9-2-2V3.6l4.1,2c0.3,0.1,0.6,0.1,0.9,0L11.1,3.6z
			 M10.1,5.2L7.4,6.5C6.9,6.8,6.3,6.8,5.8,6.6L5.6,6.5L2.9,5.2l0,3.8c0,0.5,0.4,0.9,0.9,1L4,10H9c0.5,0,1-0.4,1-0.9l0-0.1L10.1,5.2z
			"/>
		<path id="矩形_2_" class="st1" d="M12.2,5.5c0.3,0,0.5,0.2,0.5,0.5v1c0,0.3-0.2,0.5-0.5,0.5c-0.3,0-0.5-0.2-0.5-0.5V6
			C11.7,5.8,11.9,5.5,12.2,5.5z"/>
		<polygon id="路径-13" class="st0" points="12.8,3.4 12.8,6.1 11.9,6.1 11.9,3.4 		"/>
	</g>
</g>
</svg>
