<?xml version="1.0" encoding="utf-8"?>
<!-- Generator: Adobe Illustrator 25.3.1, SVG Export Plug-In . SVG Version: 6.00 Build 0)  -->
<svg version="1.1" id="图层_1" xmlns="http://www.w3.org/2000/svg" xmlns:xlink="http://www.w3.org/1999/xlink" x="0px" y="0px"
	 viewBox="0 0 14 14" style="enable-background:new 0 0 14 14;" xml:space="preserve">
<style type="text/css">
	.st0{fill:#E1EBFF;}
	.st1{fill:none;stroke:#E1EBFF;}
</style>
<g id="工单管理备份-2">
	<g id="dingdanguanli" transform="translate(0.500000, 0.200000)">
		<path id="形状" class="st0" d="M2.5,1.3C2.6,0.6,3.2,0,4,0h4.2c0.7,0,1.4,0.6,1.5,1.3h1c0.8,0,1.5,0.7,1.5,1.5V7
			c0,0.3-0.2,0.5-0.5,0.5S11.1,7.2,11.1,7V2.8c0-0.3-0.2-0.5-0.5-0.5h-1C9.5,3,8.9,3.5,8.2,3.5H4C3.3,3.5,2.7,3,2.5,2.3h-1
			C1.2,2.3,1,2.5,1,2.8v9.1c0,0.3,0.2,0.5,0.5,0.5h4.9c0.3,0,0.5,0.2,0.5,0.5s-0.2,0.5-0.5,0.5H1.5c-0.4,0-0.8-0.2-1.1-0.4
			S0,12.3,0,11.9V2.8C0,2,0.7,1.3,1.5,1.3H2.5L2.5,1.3z M4,1C3.7,1,3.5,1.2,3.5,1.5V2c0,0.3,0.2,0.5,0.5,0.5h4.2
			c0.3,0,0.5-0.2,0.5-0.5V1.5C8.6,1.2,8.4,1,8.2,1H4L4,1z M1.8,4.9c0-0.3,0.2-0.5,0.5-0.5h7.3c0.3,0,0.5,0.2,0.5,0.5
			c0,0.3-0.2,0.5-0.5,0.5H2.4C2.1,5.4,1.8,5.2,1.8,4.9L1.8,4.9z M1.8,7.3c0-0.3,0.2-0.5,0.5-0.5h4.4c0.3,0,0.5,0.2,0.5,0.5
			c0,0.3-0.2,0.5-0.5,0.5H2.4C2.1,7.8,1.8,7.6,1.8,7.3z M1.9,9.8c0-0.3,0.2-0.5,0.5-0.5h3.1C5.8,9.3,6,9.5,6,9.8s-0.2,0.5-0.5,0.5
			H2.4C2.1,10.3,1.9,10.1,1.9,9.8z"/>
		<path id="形状结合" class="st0" d="M10.1,7c0.2,0,0.3,0.2,0.4,0.3l0.2,0.4c0.1,0,0.2,0.1,0.2,0.1l0.5-0.1
			c0.2-0.1,0.4,0,0.5,0.1c0.3,0.2,0.5,0.5,0.7,0.8c0.1,0.2,0.1,0.4,0,0.5l-0.2,0.4c0,0.1,0,0.2,0.1,0.2l0.4,0.3
			c0.2,0.1,0.2,0.3,0.2,0.5c0,0.4-0.1,0.7-0.2,1.1c-0.1,0.2-0.2,0.3-0.4,0.3L11.9,12c0,0.1-0.1,0.1-0.2,0.2l0,0.5
			c0,0.2-0.1,0.4-0.2,0.5c-0.3,0.2-0.6,0.4-1,0.5c-0.2,0.1-0.4,0-0.5-0.1l-0.3-0.3c-0.1,0-0.2,0-0.3,0l-0.3,0.3
			c-0.1,0.1-0.3,0.2-0.5,0.1c-0.3-0.1-0.7-0.3-1-0.5c-0.1-0.1-0.2-0.3-0.2-0.5l0-0.5c-0.1-0.1-0.1-0.1-0.2-0.2l-0.5-0.1
			c-0.2,0-0.3-0.1-0.4-0.3c-0.1-0.3-0.2-0.7-0.2-1.1c0-0.2,0.1-0.4,0.2-0.5l0.4-0.3c0-0.1,0-0.2,0.1-0.2L6.7,9.2
			C6.6,9,6.6,8.9,6.6,8.7c0.2-0.3,0.4-0.6,0.7-0.8c0.1-0.1,0.3-0.2,0.5-0.1l0.5,0.1c0.1,0,0.2-0.1,0.2-0.1l0.2-0.4
			C8.7,7.2,8.9,7,9.1,7C9.4,7,9.8,7,10.1,7z M9.5,8L9.4,8.4C9.3,8.5,9.2,8.6,9.1,8.7c-0.2,0-0.3,0.1-0.4,0.2C8.5,9,8.3,9,8.2,8.9
			L7.8,8.8c0,0-0.1,0.1-0.1,0.1l0.2,0.3C8,9.4,8,9.6,7.9,9.7C7.9,9.9,7.8,10,7.8,10.2c0,0.2-0.1,0.3-0.2,0.4l-0.3,0.2
			c0,0.1,0,0.1,0,0.2L7.7,11c0.2,0,0.3,0.1,0.4,0.2c0.1,0.1,0.2,0.3,0.3,0.4c0.1,0.1,0.2,0.3,0.2,0.4l0,0.4c0.1,0,0.1,0.1,0.2,0.1
			l0.3-0.3c0.1-0.1,0.3-0.2,0.4-0.1c0.2,0,0.3,0,0.5,0c0.2,0,0.3,0,0.4,0.1l0.3,0.3c0.1,0,0.1-0.1,0.2-0.1l0-0.4
			c0-0.2,0-0.3,0.2-0.4c0.1-0.1,0.2-0.2,0.3-0.4c0.1-0.1,0.2-0.2,0.4-0.2l0.4-0.1c0-0.1,0-0.1,0-0.2l-0.3-0.2
			c-0.1-0.1-0.2-0.2-0.2-0.4c0-0.2-0.1-0.3-0.1-0.5c-0.1-0.1,0-0.3,0-0.4L11.5,9c0-0.1-0.1-0.1-0.1-0.1L11,8.9c-0.1,0-0.3,0-0.4-0.1
			c-0.1-0.1-0.3-0.2-0.4-0.2c-0.1,0-0.3-0.2-0.3-0.3L9.7,8C9.6,8,9.6,8,9.5,8z"/>
		<path id="路径" class="st1" d="M9.6,9.2c0.3,0,0.6,0.1,0.8,0.3c0.2,0.2,0.3,0.5,0.3,0.8c0,0.3-0.1,0.6-0.3,0.8
			c-0.2,0.2-0.5,0.3-0.8,0.3c-0.3,0-0.6-0.1-0.8-0.3c-0.2-0.2-0.3-0.5-0.3-0.8c0-0.3,0.1-0.6,0.3-0.8C9,9.3,9.3,9.2,9.6,9.2z"/>
	</g>
</g>
</svg>
