<?xml version="1.0" encoding="utf-8"?>
<!-- Generator: Adobe Illustrator 25.3.1, SVG Export Plug-In . SVG Version: 6.00 Build 0)  -->
<svg version="1.1" id="图层_1" xmlns="http://www.w3.org/2000/svg" xmlns:xlink="http://www.w3.org/1999/xlink" x="0px" y="0px"
	 viewBox="0 0 14 14" style="enable-background:new 0 0 14 14;" xml:space="preserve">
<style type="text/css">
	.st0{fill:#E1EBFF;}
</style>
<g id="服务体系">
	<g id="fuwubao" transform="translate(0.500000, 1.000000)">
		<path id="路径" class="st0" d="M8.5,9.4c0,0.2,0.2,0.4,0.4,0.4s0.4-0.2,0.4-0.4C9.3,9.2,9.2,9,8.9,9S8.5,9.2,8.5,9.4L8.5,9.4z"
			/>
		<path id="路径_1_" class="st0" d="M7.7,9H4.5C4.2,9,4.1,9.2,4.1,9.4s0.2,0.4,0.4,0.4h3.2c0.2,0,0.4-0.2,0.4-0.4
			C8.1,9.2,7.9,9,7.7,9z"/>
		<path id="形状" class="st0" d="M12.2,0H0.8C0.4,0,0,0.4,0,0.8v2.4c0,0.4,0.4,0.8,0.8,0.8v6.5c0,0.9,0.7,1.6,1.6,1.6h8.1
			c0.9,0,1.6-0.7,1.6-1.6V3.9c0.4,0,0.8-0.4,0.8-0.8V0.8C13,0.4,12.6,0,12.2,0z M7.6,0.8v4.7c0,0.1-0.1,0.2-0.2,0.2
			c0,0-0.1,0-0.1-0.1L7,5.3L6.7,5.1c-0.2-0.2-0.4-0.2-0.6,0L5.9,5.3L5.5,5.6c-0.1,0.1-0.2,0.1-0.3,0c0,0-0.1-0.1-0.1-0.1V0.8l0,0
			H7.6z M0.8,0.8h3.6v2.4H0.8V0.8z M10.6,11.2H2.4c-0.4,0-0.8-0.4-0.8-0.8V3.9h2.8v2.8c0,0.3,0.2,0.5,0.5,0.5C5,7.2,5.2,7.1,5.2,7
			l1.2-1.1l0,0L7.6,7c0.2,0.2,0.5,0.2,0.7,0c0.1-0.1,0.1-0.2,0.1-0.3V3.9l0,0h2.9v6.5C11.4,10.9,11,11.2,10.6,11.2z M12.2,3.1H8.5
			V0.8h3.7V3.1z"/>
	</g>
</g>
</svg>
