<?xml version="1.0" encoding="utf-8"?>
<!-- Generator: Adobe Illustrator 25.3.1, SVG Export Plug-In . SVG Version: 6.00 Build 0)  -->
<svg version="1.1" id="图层_1" xmlns="http://www.w3.org/2000/svg" xmlns:xlink="http://www.w3.org/1999/xlink" x="0px" y="0px"
	 viewBox="0 0 14 14" style="enable-background:new 0 0 14 14;" xml:space="preserve">
<style type="text/css">
	.st0{fill:#E1EBFF;}
</style>
<g id="数据分析备份">
	<g id="shujufenxi">
		<path id="形状" class="st0" d="M14,0.6v1.9c0,0.3-0.3,0.6-0.6,0.6c-0.3,0-0.6-0.3-0.6-0.6V2L8.8,6.1C8.7,6.2,8.5,6.2,8.4,6.2
			S8.1,6.2,7.9,6.1L4.9,3L1,6.8C0.9,6.9,0.7,7,0.6,7S0.3,6.9,0.2,6.8c-0.2-0.2-0.2-0.6,0-0.8l4.3-4.3c0.2-0.2,0.6-0.2,0.8,0l3.1,3.1
			L12,1.2h-0.5c-0.3,0-0.6-0.3-0.6-0.6S11.1,0,11.5,0h1.9c0,0,0.1,0,0.1,0c0,0,0,0,0,0c0,0,0.1,0,0.1,0c0,0,0,0,0,0c0,0,0,0,0,0
			c0,0,0.1,0.1,0.1,0.1c0,0,0,0,0,0c0,0,0,0,0,0c0,0,0,0.1,0,0.1c0,0,0,0,0,0C14,0.5,14,0.5,14,0.6z M1.7,14c-0.3,0-0.6-0.3-0.6-0.6
			V9.1c0-0.3,0.3-0.6,0.6-0.6s0.6,0.3,0.6,0.6v4.3C2.3,13.7,2.1,14,1.7,14z"/>
		<path id="形状_1_" class="st0" d="M5.2,14c-0.3,0-0.6-0.3-0.6-0.6v-7c0-0.3,0.3-0.6,0.6-0.6s0.6,0.3,0.6,0.6v7
			C5.8,13.7,5.6,14,5.2,14z M8.7,14c-0.3,0-0.6-0.3-0.6-0.6V8.4c0-0.3,0.3-0.6,0.6-0.6S9.3,8,9.3,8.4v5.1C9.3,13.7,9.1,14,8.7,14z
			 M12.2,14c-0.3,0-0.6-0.3-0.6-0.6V5.2c0-0.3,0.3-0.6,0.6-0.6s0.6,0.3,0.6,0.6v8.2C12.8,13.7,12.6,14,12.2,14z"/>
	</g>
</g>
</svg>
