<?xml version="1.0" encoding="utf-8"?>
<!-- Generator: Adobe Illustrator 25.3.1, SVG Export Plug-In . SVG Version: 6.00 Build 0)  -->
<svg version="1.1" id="图层_1" xmlns="http://www.w3.org/2000/svg" xmlns:xlink="http://www.w3.org/1999/xlink" x="0px" y="0px"
	 viewBox="0 0 14 14" style="enable-background:new 0 0 14 14;" xml:space="preserve">
<style type="text/css">
	.st0{fill:#E1EBFF;}
</style>
<g id="积分设置">
	<g id="basesalesintegralSpecial" transform="translate(0.500000, 1.000000)">
		<path id="形状" class="st0" d="M13,5.9c-0.2-1-1.6-1.7-3.5-1.7c-0.3,0-0.6,0-0.9,0V1.5C8.6,0.7,7.9,0,7.1,0H1.5
			C0.7,0,0,0.7,0,1.5v8.6c0,0.8,0.7,1.5,1.5,1.5h3.5c0.2,0,0.4-0.2,0.4-0.4c0-0.2-0.2-0.4-0.4-0.4H1.5c-0.4,0-0.7-0.3-0.7-0.7V1.5
			c0-0.4,0.3-0.7,0.7-0.7h5.6c0.4,0,0.7,0.3,0.7,0.7v2.9C6.7,4.7,6.1,5.2,5.9,5.9h0v4.2c0,1.1,1.6,1.9,3.6,1.9c2,0,3.4-0.8,3.5-1.9
			h0L13,5.9L13,5.9z M6.7,9.2c0.7,0.4,1.7,0.7,2.7,0.7c1.1,0,2-0.2,2.7-0.7v0.8c0,0.1-0.1,0.3-0.2,0.4c-0.3,0.3-1.2,0.7-2.5,0.7
			c-0.8,0-1.5-0.1-2-0.4c-0.5-0.2-0.7-0.5-0.7-0.8V9.2z M9.5,7.2c-1.6,0-2.7-0.6-2.7-1.1v0C6.8,5.5,7.9,5,9.5,5s2.7,0.6,2.7,1.1v0
			C12.1,6.7,11.1,7.2,9.5,7.2z M9.5,9.1C7.9,9.1,6.8,8.5,6.7,8V7.3C7.4,7.8,8.4,8,9.5,8c1.1,0,2-0.2,2.7-0.7V8
			C12.1,8.5,11.1,9.1,9.5,9.1z"/>
		<path id="形状_1_" class="st0" d="M2.1,3.2h4.6c0.2,0,0.4-0.2,0.4-0.4S6.9,2.4,6.7,2.4H2.1c-0.2,0-0.4,0.2-0.4,0.4
			S1.9,3.2,2.1,3.2z M2.1,5.2c-0.2,0-0.4,0.2-0.4,0.4C1.7,5.8,1.9,6,2.1,6h2.9c0.2,0,0.4-0.2,0.4-0.4c0-0.2-0.2-0.4-0.4-0.4H2.1z
			 M2.1,8.1c-0.2,0-0.4,0.2-0.4,0.4s0.2,0.4,0.4,0.4h2.9c0.2,0,0.4-0.2,0.4-0.4c0-0.2-0.2-0.4-0.4-0.4H2.1z"/>
	</g>
</g>
</svg>
