<?xml version="1.0" encoding="utf-8"?>
<!-- Generator: Adobe Illustrator 25.3.1, SVG Export Plug-In . SVG Version: 6.00 Build 0)  -->
<svg version="1.1" id="图层_1" xmlns="http://www.w3.org/2000/svg" xmlns:xlink="http://www.w3.org/1999/xlink" x="0px" y="0px"
	 viewBox="0 0 14 14" style="enable-background:new 0 0 14 14;" xml:space="preserve">
<style type="text/css">
	.st0{fill:#E1EBFF;}
</style>
<g id="协议管理备份">
	<g id="suanfaku-xian" transform="translate(0.500000, 0.500000)">
		<path id="形状" class="st0" d="M9.4,5.5c0.2-0.1,0.3-0.3,0.3-0.5V2c0-0.2-0.1-0.4-0.3-0.5L6.8,0.1C6.6,0,6.4,0,6.2,0.1L3.6,1.6
			C3.5,1.6,3.4,1.8,3.4,2l0,3c0,0.2,0.1,0.4,0.3,0.5L6.2,7c0.1,0,0.2,0.1,0.3,0.1c0.1,0,0.2,0,0.3-0.1L9.4,5.5z M4.4,4.7l0-2.4
			l2.1-1.2l2.1,1.2L6.5,3.5l0,2.4L4.4,4.7z M6,7.5L3.4,6C3.2,5.9,3,5.9,2.9,6L0.3,7.5C0.1,7.6,0,7.8,0,8l0,3c0,0.2,0.1,0.4,0.3,0.5
			l2.6,1.5C2.9,13,3,13,3.1,13c0.1,0,0.2,0,0.3-0.1L6,11.5c0.2-0.1,0.3-0.3,0.3-0.5V8C6.3,7.8,6.2,7.6,6,7.5L6,7.5z M1.1,10.7l0-2.4
			l2.1-1.2l2.1,1.2L3.1,9.5l0,2.4L1.1,10.7L1.1,10.7z M12.7,7.5L10.1,6C10,5.9,9.8,5.9,9.6,6L7,7.5C6.8,7.6,6.7,7.8,6.7,8l0,3
			c0,0.2,0.1,0.4,0.3,0.5l2.6,1.5C9.7,13,9.8,13,9.9,13c0.1,0,0.2,0,0.3-0.1l2.6-1.5c0.2-0.1,0.3-0.3,0.3-0.5V8
			C13,7.8,12.9,7.6,12.7,7.5L12.7,7.5z M7.8,10.7l0-2.4l2.1-1.2l2.1,1.2L9.9,9.5l0,2.4L7.8,10.7L7.8,10.7z"/>
	</g>
</g>
</svg>
