<?xml version="1.0" encoding="utf-8"?>
<!-- Generator: Adobe Illustrator 25.3.1, SVG Export Plug-In . SVG Version: 6.00 Build 0)  -->
<svg version="1.1" id="图层_1" xmlns="http://www.w3.org/2000/svg" xmlns:xlink="http://www.w3.org/1999/xlink" x="0px" y="0px"
	 viewBox="0 0 14 14" style="enable-background:new 0 0 14 14;" xml:space="preserve">
<style type="text/css">
	.st0{fill:#E1EBFF;}
</style>
<g id="资源管理备份">
	<path id="形状" class="st0" d="M1,8.8c0.1,0,0.2,0,0.2,0.1l0,0l5.8,4l5.7-4c0.1,0,0.1-0.1,0.2-0.1l0.1,0l0.1,0
		c0.2,0,0.3,0.1,0.4,0.2c0.1,0.2,0.1,0.5-0.1,0.7l0,0l-6,4.2C7.2,14,7.1,14,7,14c-0.1,0-0.2,0-0.3-0.1l0,0l-6-4.2
		C0.6,9.7,0.5,9.5,0.4,9.4c0-0.1,0-0.3,0.1-0.4C0.6,8.9,0.8,8.8,1,8.8z M1,6.5c0.1,0,0.2,0,0.2,0.1l0.1,0l5.7,4l5.7-4
		c0.1,0,0.1-0.1,0.2-0.1l0.1,0l0.1,0c0.2,0,0.3,0.1,0.4,0.2c0.1,0.2,0.1,0.5-0.1,0.7l0,0l-6,4.2c-0.1,0.1-0.2,0.1-0.3,0.1
		c-0.1,0-0.2,0-0.3-0.1l0,0l-6-4.2C0.6,7.4,0.5,7.2,0.4,7.1c0-0.1,0-0.3,0.1-0.4C0.6,6.6,0.8,6.5,1,6.5z M7,0c0.1,0,0.2,0,0.3,0.1
		l0,0l6,4.2c0.2,0.2,0.3,0.5,0.1,0.7c0,0-0.1,0.1-0.1,0.1l0,0l-6,4.2c-0.1,0-0.2,0.1-0.2,0.1L7,9.4c-0.1,0-0.2,0-0.3-0.1l0,0l-6-4.2
		C0.4,5,0.4,4.6,0.5,4.4c0,0,0.1-0.1,0.1-0.1l0,0l6-4.2C6.8,0,6.9,0,7,0z M7,1L1.6,4.7L7,8.4l5.4-3.7L7,1z"/>
</g>
</svg>
