<?xml version="1.0" encoding="utf-8"?>
<!-- Generator: Adobe Illustrator 25.3.1, SVG Export Plug-In . SVG Version: 6.00 Build 0)  -->
<svg version="1.1" id="图层_1" xmlns="http://www.w3.org/2000/svg" xmlns:xlink="http://www.w3.org/1999/xlink" x="0px" y="0px"
	 viewBox="0 0 18 18" style="enable-background:new 0 0 18 18;" xml:space="preserve">
<style type="text/css">
	.st0{fill:none;}
	.st1{fill:#3DDDFF;}
</style>
<g id="页面-1">
	<g id="编组-10" transform="translate(0.000000, 0.000000)">
		<rect id="矩形" class="st0" width="18" height="18"/>
		<g id="mima" transform="translate(1.350000, 0.000000)">
			<path id="形状" class="st1" d="M7.7,0C4.9,0,2.3,2,2.3,4.4v2.3L2.2,6.9H1.4C0.8,6.9,0,7.5,0,8.2v8.6c0,0.5,0.6,1.2,1.2,1.2
				h13.6c0.3,0,0.4-0.2,0.4-0.7c0,0,0-0.1,0-0.2c0-0.2,0-0.3,0-0.3V8.2c0-0.8-0.7-1.4-1.4-1.4h-0.8L13,6.7V4.4C13,2,10.4,0,7.7,0z
				 M13.8,8.1l0.1,0.1l0.2,8.6l0,0.3l-0.2-0.2l-0.2-0.2l-12.4,0l-0.1-0.1V8.2l0.1-0.1H13.8z M7.6,9.6c0.9,0,1.7,0.7,1.7,1.7
				c0,0.6-0.3,1.2-0.9,1.4l0.1,0l0,1.7c0,0.5-0.3,0.8-0.8,0.9l-0.1,0c-0.5,0-0.9-0.4-0.9-0.9l0-1.7l0,0c-0.4-0.3-0.7-0.7-0.7-1.2
				l0-0.1C5.9,10.4,6.6,9.6,7.6,9.6z M7.6,1.2c2,0,4,1.5,4,3.2v2.3l-0.1,0.1H3.7L3.5,6.7V4.4C3.5,2.7,5.6,1.2,7.6,1.2z"/>
		</g>
	</g>
</g>
</svg>
