<?xml version="1.0" encoding="utf-8"?>
<!-- Generator: Adobe Illustrator 25.3.1, SVG Export Plug-In . SVG Version: 6.00 Build 0)  -->
<svg version="1.1" id="图层_1" xmlns="http://www.w3.org/2000/svg" xmlns:xlink="http://www.w3.org/1999/xlink" x="0px" y="0px"
	 viewBox="0 0 18 18" style="enable-background:new 0 0 18 18;" xml:space="preserve">
<style type="text/css">
	.st0{filter:url(#Adobe_OpacityMaskFilter);}
	.st1{fill-rule:evenodd;clip-rule:evenodd;fill:#FFFFFF;}
	.st2{mask:url(#mask-2_1_);fill:#3DDDFF;}
</style>
<g id="页面-1">
	<g id="qiehuankapian">
		<g id="矩形">
		</g>
		<defs>
			<filter id="Adobe_OpacityMaskFilter" filterUnits="userSpaceOnUse" x="1" y="1" width="16" height="16">
				<feColorMatrix  type="matrix" values="1 0 0 0 0  0 1 0 0 0  0 0 1 0 0  0 0 0 1 0"/>
			</filter>
		</defs>
		<mask maskUnits="userSpaceOnUse" x="1" y="1" width="16" height="16" id="mask-2_1_">
			<g class="st0">
				<rect id="path-1_1_" class="st1" width="18" height="18"/>
			</g>
		</mask>
		<path id="形状" class="st2" d="M15.1,12.4h-3.3c-1,0-1.9,0.8-1.9,1.9v0.8c0,0.5,0.2,1,0.6,1.3c0.4,0.4,0.8,0.6,1.3,0.6h3.3
			c1,0,1.9-0.8,1.9-1.9v-0.8C17,13.3,16.2,12.4,15.1,12.4z M6.1,10H2.9c-1,0-1.9,0.8-1.9,1.9v3.3c0,1,0.8,1.9,1.9,1.9h3.3
			c1,0,1.9-0.8,1.9-1.9v-3.3C8,10.8,7.2,10,6.1,10z M15.1,13.7c0.3,0,0.6,0.3,0.6,0.6v0.8c0,0.3-0.3,0.6-0.6,0.6h-3.3
			c-0.3,0-0.6-0.3-0.6-0.6v-0.8c0-0.3,0.3-0.6,0.6-0.6H15.1z M6.1,11.3c0.3,0,0.6,0.3,0.6,0.6v3.3c0,0.3-0.3,0.6-0.6,0.6H2.9
			c-0.3,0-0.6-0.3-0.6-0.6v-3.3c0-0.3,0.3-0.6,0.6-0.6H6.1z M15.1,1h-3.3c-1,0-1.9,0.8-1.9,1.9V9c0,1,0.8,1.9,1.9,1.9h3.3
			c1,0,1.9-0.8,1.9-1.9V2.9C17,1.8,16.2,1,15.1,1z M15.1,2.3c0.3,0,0.6,0.3,0.6,0.6V9c0,0.3-0.3,0.6-0.6,0.6h-3.3
			c-0.3,0-0.6-0.3-0.6-0.6V2.9c0-0.3,0.3-0.6,0.6-0.6H15.1z M6.1,1H2.9C1.8,1,1,1.8,1,2.9v3.3C1,7.2,1.8,8,2.9,8h3.3
			C7.2,8,8,7.2,8,6.1V2.9C8,1.8,7.2,1,6.1,1z M6.1,2.3c0.3,0,0.6,0.3,0.6,0.6v3.3c0,0.1-0.1,0.3-0.2,0.4C6.4,6.6,6.3,6.7,6.1,6.7
			H2.9c-0.3,0-0.6-0.3-0.6-0.6V2.9c0-0.3,0.3-0.6,0.6-0.6H6.1z"/>
	</g>
</g>
</svg>
