<?xml version="1.0" encoding="utf-8"?>
<!-- Generator: Adobe Illustrator 25.3.1, SVG Export Plug-In . SVG Version: 6.00 Build 0)  -->
<svg version="1.1" id="图层_1" xmlns="http://www.w3.org/2000/svg" xmlns:xlink="http://www.w3.org/1999/xlink" x="0px" y="0px"
	 viewBox="0 0 18 18" style="enable-background:new 0 0 18 18;" xml:space="preserve">
<style type="text/css">
	.st0{fill:none;}
	.st1{fill:#3DDDFF;}
</style>
<g id="页面-1">
	<g id="编组-11">
		<rect id="矩形" class="st0" width="18" height="18"/>
		<g id="zhanghu" transform="translate(0.900000, 0.000000)">
			<path id="形状" class="st1" d="M16.2,17.3c0,0.4-0.3,0.7-0.7,0.7c-0.4,0-0.7-0.3-0.7-0.7l0-0.1c0,0,0-0.1,0-0.1
				c-0.5-3.2-3.2-5.6-6.6-5.6c0,0-0.1,0-0.1,0s-0.1,0-0.1,0c-3.3,0-6,2.4-6.5,5.5c0,0.1,0,0.1,0,0.2l0,0.1c0,0.4-0.3,0.7-0.7,0.7
				C0.3,18,0,17.7,0,17.3l0,0h0c0,0,0,0,0-0.1c0-0.1,0-0.1,0-0.2c0.4-3,2.4-5.4,5.1-6.4c-1.6-1-2.6-2.8-2.6-4.8C2.5,2.6,4.9,0,8.1,0
				c3.1,0,5.6,2.6,5.6,5.7c0,2-1,3.8-2.6,4.8c2.7,1,4.7,3.4,5.1,6.4C16.2,17,16.2,17.1,16.2,17.3L16.2,17.3L16.2,17.3L16.2,17.3z
				 M12.4,5.7c0-2.4-1.9-4.3-4.3-4.3S3.8,3.3,3.8,5.7c0,2.4,1.9,4.3,4.3,4.3C10.5,10.1,12.4,8.1,12.4,5.7L12.4,5.7L12.4,5.7z"/>
		</g>
	</g>
</g>
</svg>
